<svg width="158" height="70" viewBox="0 0 158 70" fill="none" xmlns="http://www.w3.org/2000/svg">
<g clip-path="url(#clip0_2_166)">
<g clip-path="url(#clip1_2_166)">
<mask id="mask0_2_166" style="mask-type:luminance" maskUnits="userSpaceOnUse" x="0" y="0" width="157" height="70">
<path d="M156.88 0H0.5V69.57H156.88V0Z" fill="white"/>
</mask>
<g mask="url(#mask0_2_166)">
<path d="M32.4999 0C32.6052 0.0528108 32.6915 0.136926 32.747 0.240784C32.8025 0.344642 32.8245 0.463143 32.8099 0.58C32.8099 1.58 32.7599 2.58 32.7199 3.58C32.6199 5.74 32.4799 7.9 32.2399 10.06C32.0299 12 31.7799 14 31.4999 15.89C31.2199 17.78 30.6999 19.89 30.1799 21.89C29.3136 25.1143 28.2174 28.2723 26.8999 31.34C26.8999 31.39 26.8399 31.43 26.8199 31.48C26.7333 31.515 26.6365 31.515 26.5499 31.48C25.4699 31.29 24.3799 31.11 23.2999 30.91C23.1839 30.9073 23.0732 30.8609 22.9899 30.78C22.9782 30.7231 22.9783 30.6645 22.9903 30.6077C23.0024 30.5509 23.0261 30.4972 23.0599 30.45C24.0842 28.2387 24.9562 25.9601 25.6699 23.63C26.4428 21.1082 27.054 18.5396 27.4999 15.94C27.8099 14.25 28.0399 12.55 28.2499 10.84C28.3799 9.78 28.4699 8.72 28.5499 7.65L28.7999 5C28.7999 4.65 28.7999 4.31 28.8499 4C28.8499 2.87 28.9699 1.74 28.9499 0.61C28.9499 0.23 29.0299 0.1 29.3299 0H32.4999Z" fill="#00FE88"/>
<path d="M17.79 28.2C18.18 27.26 18.6 26.33 18.96 25.38C20.0191 22.6043 20.8682 19.7529 21.5 16.85C21.9067 14.8967 22.24 12.9333 22.5 10.96C22.76 8.98667 22.9467 6.95 23.06 4.85C23.14 3.4 23.25 1.96 23.22 0.51C23.2155 0.407498 23.2392 0.305722 23.2886 0.215784C23.338 0.125845 23.4111 0.051201 23.5 0H26.71C26.807 0.0600605 26.8849 0.146521 26.9345 0.249247C26.984 0.351973 27.0033 0.466707 26.99 0.58C26.94 2.93 26.84 5.29 26.63 7.64C26.51 8.97 26.39 10.31 26.21 11.64C25.914 14.0482 25.4867 16.4384 24.93 18.8C24.1221 22.2203 23.0248 25.5657 21.65 28.8C21.65 28.85 21.6 28.89 21.58 28.94C21.5342 28.9595 21.4849 28.9696 21.435 28.9696C21.3852 28.9696 21.3359 28.9595 21.29 28.94C20.22 28.75 19.15 28.57 18.09 28.37C17.9718 28.3544 17.8642 28.2934 17.79 28.2Z" fill="#00FE88"/>
<path d="M20.9501 0C21.0469 0.0761805 21.1226 0.17595 21.1699 0.289759C21.2172 0.403568 21.2345 0.527606 21.2201 0.65C21.2201 2.11 21.1001 3.56 21.0401 5.02C20.8005 10.848 19.7608 16.6153 17.9501 22.16C17.4634 23.7067 16.8967 25.2267 16.2501 26.72C16.2501 26.81 16.1701 26.88 16.1301 26.97C16.0589 26.9952 15.9813 26.9952 15.9101 26.97C14.7101 26.78 13.5301 26.49 12.3301 26.29C12.7701 25.24 13.2401 24.19 13.6501 23.13C14.8928 19.9888 15.8239 16.7332 16.4301 13.41C16.6714 11.95 16.8316 10.4777 16.9101 9C16.9801 8.15 17.0801 7.3 17.1501 6.45C17.2201 5.6 17.2701 4.64 17.3201 3.73C17.3701 2.82 17.4401 2.08 17.4401 1.24C17.4401 1.01 17.4401 0.77 17.4401 0.53C17.4336 0.422131 17.4585 0.314695 17.5117 0.220653C17.565 0.126611 17.6443 0.0499785 17.7401 0H20.9501Z" fill="#00FE88"/>
<path d="M3.67 48.3001L3.5 49.0001C3.46061 49.0174 3.41804 49.0264 3.375 49.0264C3.33196 49.0264 3.28939 49.0174 3.25 49.0001L0.67 48.5901C0.60823 48.5819 0.549653 48.5577 0.5 48.5201V47.7401C0.5 47.7401 0.5 47.6301 0.58 47.6101C0.749021 47.5954 0.919255 47.6158 1.08 47.6701C1.86 47.7968 2.64 47.9368 3.42 48.0901C3.5 48.1101 3.7 48.0901 3.67 48.3001Z" fill="#00B162"/>
<path d="M3.34001 49.67L3.21001 50.73C3.17148 50.6647 3.1177 50.6096 3.05327 50.5696C2.98884 50.5295 2.91567 50.5056 2.84001 50.5L0.84001 50.15C0.770769 50.1479 0.704097 50.1233 0.65001 50.08C0.56001 49.86 0.65001 49.61 0.51001 49.39V49.16C0.59001 49.09 0.68001 49.16 0.77001 49.16C1.58001 49.28 2.38001 49.45 3.19001 49.58C3.25001 49.57 3.34001 49.56 3.34001 49.67Z" fill="#00AA5F"/>
<path d="M3.34 49.67C3.03196 49.5851 2.71763 49.5249 2.4 49.49C1.77 49.37 1.13 49.27 0.5 49.16V48.52C0.92 48.52 1.32 48.65 1.73 48.71C2.32 48.8 2.89 48.92 3.48 49.02C3.44877 49.2397 3.40199 49.4569 3.34 49.67Z" fill="#00AE61"/>
<path d="M0.55 47.65C0.55 47.65 0.55 47.72 0.55 47.74V47.46H0.5C0.531609 47.4787 0.55457 47.5092 0.563925 47.5447C0.57328 47.5803 0.568278 47.6181 0.55 47.65Z" fill="#9EE2C4"/>
<path d="M28.65 60H45.37C45.8 60 45.93 60.13 45.93 60.56V63.29C45.93 63.62 45.78 63.77 45.46 63.77H24.57C24.5 63.63 24.62 63.57 24.69 63.51L26.04 62.31C26.66 61.77 27.28 61.23 27.89 60.68C28.1209 60.4294 28.3754 60.2017 28.65 60Z" fill="#00FE88"/>
<path d="M29.2 54.17H45.38C45.4391 54.1686 45.4977 54.1793 45.5524 54.2016C45.6071 54.2238 45.6567 54.2571 45.698 54.2993C45.7392 54.3415 45.7714 54.3918 45.7924 54.447C45.8134 54.5022 45.8228 54.5611 45.82 54.6201V57.5001C45.8261 57.5598 45.8189 57.6201 45.7991 57.6768C45.7793 57.7334 45.7472 57.785 45.7053 57.8279C45.6633 57.8709 45.6124 57.9041 45.5562 57.9251C45.5 57.9462 45.4399 57.9547 45.38 57.9501H12.61C12.6056 57.9407 12.6033 57.9304 12.6033 57.92C12.6033 57.9097 12.6056 57.8994 12.61 57.8901C12.7258 57.8695 12.8443 57.8695 12.96 57.8901H22.26C22.97 57.8901 23.68 57.8901 24.39 57.8901C24.4812 57.8894 24.5694 57.8577 24.64 57.8001C26.03 56.6501 27.45 55.5401 28.86 54.4101C28.9531 54.3046 29.0695 54.2224 29.2 54.17Z" fill="#00FE88"/>
<path d="M30.89 65.8101H45.3C45.76 65.8101 45.88 65.9301 45.88 66.3901V69.0001C45.88 69.3601 45.72 69.5301 45.37 69.5301H27.27C27.19 69.4301 27.27 69.3601 27.33 69.2901C27.65 68.9501 28.02 68.6401 28.33 68.2901C28.64 67.9401 28.82 67.8501 29.02 67.5901C29.22 67.3301 29.35 67.2701 29.51 67.1101C29.98 66.7101 30.41 66.2301 30.89 65.8101Z" fill="#00FE88"/>
<path d="M20.03 36.5001C20.35 35.9201 20.67 35.3501 20.98 34.7601C21.65 33.5201 22.29 32.2601 22.87 30.9701C22.8906 30.9139 22.9175 30.8602 22.95 30.8101C23.3735 30.9264 23.8045 31.0133 24.24 31.0701L26.77 31.5101C26.34 32.4201 25.92 33.3501 25.47 34.2601C25.02 35.1701 24.57 36.1101 24.06 37.0001C24.0193 37.0802 23.9725 37.1571 23.92 37.2301C22.71 37.0001 21.48 36.8101 20.27 36.5701C20.1848 36.5716 20.1011 36.5472 20.03 36.5001Z" fill="#00FB86"/>
<path d="M20.0301 36.5C20.3915 36.5145 20.7502 36.5681 21.1001 36.66C21.9501 36.79 22.8101 36.95 23.6601 37.11C23.7501 37.11 23.8801 37.11 23.9201 37.23C23.5001 38.11 22.9801 39 22.5001 39.8C21.8501 39.67 21.1901 39.59 20.5001 39.42C19.8101 39.25 19.4201 39.24 18.8801 39.13C18.7701 39.13 18.6301 39.13 18.5701 38.98L20.0301 36.5Z" fill="#00F684"/>
<path d="M29.1999 54.1699C28.8265 54.53 28.4289 54.8641 28.0099 55.1699C27.2899 55.7599 26.5499 56.3299 25.8299 56.9199C25.421 57.2305 25.0304 57.5644 24.6599 57.9199C24.6599 57.9199 24.5499 57.9199 24.4899 57.9199H22.3699C22.3099 57.8099 22.3699 57.7599 22.4699 57.6999C22.8299 57.3799 23.2199 57.0999 23.5899 56.7999C24.6899 55.9299 25.7699 55.0499 26.8599 54.1799L29.1999 54.1699Z" fill="#00FC87"/>
<path d="M16.1001 42.8299L17.3401 40.9099C17.6511 40.9131 17.9604 40.9568 18.2601 41.0399C19.1501 41.1799 20.0501 41.3399 20.9401 41.4999C21.0146 41.5152 21.0881 41.5353 21.1601 41.5599C21.2401 41.5599 21.3201 41.6299 21.2701 41.7399C20.9101 42.3899 20.5001 43.0099 20.0801 43.6199C18.9001 43.3799 17.7201 43.1999 16.5001 42.9999C16.3901 42.9999 16.2201 42.9999 16.1001 42.8299Z" fill="#00F081"/>
<path d="M16.0999 42.8301L19.9199 43.5201C19.9899 43.5201 20.0699 43.5201 20.0799 43.6201C19.6799 44.2501 19.2699 44.8801 18.8299 45.4901C18.1199 45.3801 17.4099 45.2401 16.6999 45.1101C16.2399 45.0401 15.7799 44.9601 15.3299 44.8701C15.2447 44.8668 15.161 44.8466 15.0837 44.8105C15.0064 44.7744 14.9371 44.7233 14.8799 44.6601C15.2699 44.0001 15.6799 43.4301 16.0999 42.8301Z" fill="#00EB7F"/>
<path d="M21.2701 41.74C21.1901 41.52 20.9701 41.58 20.8201 41.56C19.6901 41.34 18.5601 41.15 17.4201 40.95H17.3401L18.5701 39C19.0303 39.1207 19.498 39.2109 19.9701 39.27C20.7601 39.44 21.5401 39.61 22.3301 39.73C22.3572 39.7341 22.383 39.7444 22.4055 39.76C22.428 39.7756 22.4467 39.7961 22.4601 39.82C22.0801 40.46 21.6901 41.11 21.2701 41.74Z" fill="#00F283"/>
<path d="M14.88 44.6599C15.6212 44.8678 16.3765 45.0216 17.14 45.1199L18.65 45.3999C18.6847 45.401 18.7188 45.4096 18.7499 45.4251C18.7809 45.4407 18.8083 45.4628 18.83 45.4899C18.4942 46.0351 18.1304 46.5625 17.74 47.0699C16.52 46.7899 15.27 46.6199 14.04 46.3899C13.93 46.3899 13.81 46.3899 13.73 46.2699L14.88 44.6599Z" fill="#00E67D"/>
<path d="M30.8899 65.81C30.6899 66.1014 30.4472 66.361 30.1699 66.58C29.9699 66.78 29.7599 66.97 29.5699 67.17C29.2099 67.56 28.8099 67.91 28.4599 68.3C28.1099 68.69 27.7499 68.99 27.3999 69.3C27.3299 69.36 27.2599 69.42 27.2699 69.53H25.6699C25.6699 69.41 25.6699 69.34 25.7899 69.28C26.5399 68.51 27.2899 67.74 28.0699 67C28.4999 66.6 28.8999 66.17 29.3299 65.78L30.8899 65.81Z" fill="#00FB86"/>
<path d="M28.65 60C28.22 60.48 27.71 60.87 27.25 61.31C26.96 61.58 26.64 61.83 26.34 62.1L24.82 63.44C24.72 63.53 24.59 63.6 24.57 63.75H23.01C22.95 63.66 23.01 63.61 23.07 63.56C23.75 62.98 24.41 62.39 25.07 61.8C25.73 61.21 26.3 60.73 26.9 60.18C26.9649 60.1064 27.0429 60.0454 27.13 60H28.65Z" fill="#00F785"/>
<path d="M13.7301 46.27L17.3201 46.9C17.4701 46.9 17.6501 46.9 17.7401 47.07L16.9601 48.2C16.8718 48.2248 16.7784 48.2248 16.6901 48.2C15.4901 47.99 14.2901 47.76 13.0901 47.57C13.0053 47.5631 12.9265 47.5237 12.8701 47.46L13.7301 46.27Z" fill="#00E27B"/>
<path d="M12.8699 47.46L16.4999 48.1C16.6733 48.1129 16.8445 48.1465 17.0099 48.2C16.7789 48.5982 16.5146 48.9763 16.2199 49.33C16.0135 49.3373 15.8074 49.3103 15.6099 49.25L12.4799 48.7C12.3599 48.7 12.2299 48.7 12.1499 48.57C12.3696 48.1872 12.61 47.8166 12.8699 47.46Z" fill="#00E079"/>
<path d="M26.86 54.1699C26.6904 54.403 26.4763 54.6001 26.23 54.7499L23.98 56.5599C23.6 56.8599 23.21 57.1499 22.83 57.4599C22.67 57.5999 22.46 57.6999 22.37 57.9099H20.99C20.99 57.7299 21.14 57.6699 21.24 57.5899L22.96 56.2199L25.53 54.2199L26.86 54.1699Z" fill="#00F785"/>
<path d="M10.76 50.58C10.9706 50.2337 11.201 49.8998 11.45 49.58C11.4934 49.5581 11.5414 49.5466 11.59 49.5466C11.6387 49.5466 11.6866 49.5581 11.73 49.58L15.17 50.19C15.29 50.19 15.46 50.19 15.49 50.38L14.72 51.5C14.331 51.3309 13.9204 51.2165 13.5 51.16C12.7 51.01 11.9 50.86 11.09 50.73C10.97 50.71 10.84 50.7 10.76 50.58Z" fill="#00D976"/>
<path d="M10.7601 50.5801C11.4901 50.7701 12.2401 50.8501 12.9901 50.9901L14.5301 51.2701C14.6301 51.2701 14.7101 51.2701 14.7201 51.4201C14.5301 51.7401 14.3301 52.0401 14.1201 52.3301C13.7832 52.3142 13.4484 52.2674 13.1201 52.1901L10.4101 51.7101C10.3001 51.7101 10.1901 51.7101 10.1201 51.5901C10.3083 51.2381 10.5222 50.9005 10.7601 50.5801Z" fill="#00D474"/>
<path d="M15.5 50.3C15.44 50.18 15.31 50.2 15.22 50.18L12.22 49.67L11.5 49.53C11.6955 49.1834 11.9126 48.8494 12.15 48.53L14.41 48.94L15.99 49.21L16.22 49.29C16.0052 49.644 15.7645 49.9815 15.5 50.3Z" fill="#00DC78"/>
<path d="M29.3299 65.81C29.3299 65.92 29.2299 65.98 29.1599 66.04C28.0533 67.1267 26.9566 68.21 25.8699 69.29C25.784 69.364 25.7156 69.4562 25.6699 69.56H24.4999C24.4399 69.42 24.5599 69.37 24.6299 69.3C25.0999 68.84 25.5599 68.36 26.0499 67.9C26.7299 67.27 27.3699 66.61 28.0499 65.9C28.0897 65.8435 28.1408 65.7958 28.1999 65.76L29.3299 65.81Z" fill="#00F684"/>
<path d="M10.5 59.11L10.27 60C10.2875 60.0809 10.2817 60.1652 10.2534 60.243C10.2251 60.3208 10.1754 60.3891 10.11 60.44C9.69321 60.4019 9.27911 60.3384 8.87002 60.25C8.35002 60.17 7.87002 60.05 7.31002 59.95C7.22459 59.9509 7.14214 59.9186 7.08002 59.86C7.01011 59.4731 7.01011 59.0768 7.08002 58.69C7.08301 58.6638 7.09173 58.6385 7.10555 58.6161C7.11938 58.5936 7.13797 58.5744 7.16002 58.56C7.24661 58.5249 7.34342 58.5249 7.43002 58.56L10.24 59.06C10.3298 59.0466 10.4215 59.0643 10.5 59.11Z" fill="#00B463"/>
<path d="M10.1301 51.5901L13.4201 52.1801C13.659 52.1991 13.8944 52.2496 14.1201 52.3301C13.9521 52.6295 13.7686 52.9199 13.5701 53.2001C13.4295 53.2398 13.2807 53.2398 13.1401 53.2001L9.97011 52.6301C9.84011 52.6301 9.70011 52.6301 9.61011 52.5001C9.76254 52.1853 9.93628 51.8812 10.1301 51.5901Z" fill="#00D172"/>
<path d="M8.69995 54.1601L9.17995 53.2501C9.25113 53.2249 9.32878 53.2249 9.39995 53.2501L12.73 53.8301C12.85 53.8301 13.04 53.8301 13.06 54.0301V54.1601C12.9778 54.4416 12.8185 54.6945 12.6 54.8901C12.18 54.8901 11.76 54.7501 11.34 54.6701L9.05995 54.2701C8.93064 54.2778 8.80287 54.2387 8.69995 54.1601Z" fill="#00CB6F"/>
<path d="M13.0599 54C13.0599 53.91 12.9499 53.91 12.8799 53.9L9.49993 53.33L9.17993 53.25C9.30522 52.9772 9.44888 52.7133 9.60993 52.46C10.7799 52.67 11.9399 52.89 13.1099 53.09C13.2663 53.1124 13.4203 53.1492 13.5699 53.2C13.4145 53.4756 13.2442 53.7427 13.0599 54Z" fill="#00CE71"/>
<path d="M4.19995 57C4.11348 56.7557 4.0466 56.5049 3.99995 56.25C3.98944 56.1575 3.95108 56.0703 3.88995 56C3.88995 55.84 3.77995 55.69 3.88995 55.53C4.34995 55.53 4.80995 55.68 5.26995 55.76L6.26995 55.95C6.36355 55.954 6.45393 55.9853 6.52995 56.04C6.57012 56.1429 6.57012 56.2571 6.52995 56.36C6.45995 56.57 6.52995 56.79 6.52995 57C6.52995 57.21 6.52995 57.24 6.44995 57.34C6.37947 57.3689 6.30044 57.3689 6.22995 57.34L4.34995 57C4.30023 57.0074 4.24968 57.0074 4.19995 57Z" fill="#00AB5F"/>
<path d="M28.19 65.8101C28.1451 65.9089 28.0805 65.9974 28 66.0701C27.38 66.6801 26.79 67.3101 26.15 67.9101C25.51 68.5101 25.15 68.9101 24.66 69.3601C24.6 69.4201 24.52 69.4601 24.52 69.5601H23.7C23.7 69.4001 23.7899 69.3301 23.8799 69.2401C24.7699 68.3201 25.73 67.4701 26.62 66.5501C26.86 66.3001 27.1 66.0501 27.36 65.8101H28.19Z" fill="#00EF81"/>
<path d="M27.3601 65.8101C27.3601 65.9101 27.2801 65.9501 27.2301 66.0101C26.5701 66.6701 25.9401 67.3401 25.2301 68.0101C24.7601 68.4401 24.3201 68.9001 23.8601 69.3501C23.7778 69.4172 23.7127 69.5029 23.6701 69.6001H22.8401C22.8401 69.4301 22.9501 69.3601 23.0401 69.2701C24.1401 68.2001 25.2401 67.1501 26.3201 66.0701L26.5501 65.8501L27.3601 65.8101Z" fill="#00E97E"/>
<path d="M7.3299 62.14L7.2299 61.88C7.12214 61.628 7.08748 61.3508 7.1299 61.08C7.16297 61.0654 7.19874 61.0579 7.2349 61.0579C7.27105 61.0579 7.30682 61.0654 7.3399 61.08L9.7599 61.51C9.81399 61.5177 9.86544 61.5382 9.90989 61.57C10.0099 61.8 9.90989 62.03 9.90989 62.26C9.90989 62.49 9.90989 62.5 9.81989 62.6C9.77933 62.6195 9.7349 62.6296 9.68989 62.6296C9.64489 62.6296 9.60046 62.6195 9.5599 62.6L7.5599 62.25C7.47423 62.2363 7.39435 62.1981 7.3299 62.14Z" fill="#00AA5E"/>
<path d="M25.3001 60H25.9901C25.9901 60.11 25.9901 60.18 25.8801 60.24C25.3201 60.72 24.7801 61.24 24.2201 61.7L22.8001 63C22.5031 63.2822 22.1892 63.546 21.8601 63.79H21.1701C21.1201 63.6 21.2801 63.53 21.3801 63.45C22.0401 62.9 22.6501 62.31 23.3201 61.77C23.9901 61.23 24.6301 60.55 25.3001 60Z" fill="#00E87E"/>
<path d="M26.5799 65.81C26.5799 65.92 26.4899 65.97 26.4299 66.03L23.9199 68.5L23.0599 69.31C22.9777 69.3771 22.9126 69.4628 22.8699 69.56H22.2299C22.1699 69.46 22.2299 69.4 22.3099 69.35C22.9699 68.69 23.6099 68.02 24.3099 67.35C24.7099 66.97 25.0899 66.57 25.4799 66.19L25.8799 65.78L26.5799 65.81Z" fill="#00E27A"/>
<path d="M17.69 63.74H17C16.94 63.65 17 63.6 17.08 63.56L19.5 61.45C20.06 60.96 20.59 60.45 21.17 59.99H21.85C21.85 60.09 21.85 60.14 21.75 60.2C21.29 60.63 20.81 61.04 20.33 61.45C19.85 61.86 19.33 62.4 18.77 62.85C18.4268 63.1665 18.0663 63.4637 17.69 63.74Z" fill="#00BB67"/>
<path d="M23.9701 60H24.6601C24.6601 60.1 24.6601 60.16 24.5601 60.21L22.1501 62.34C21.6701 62.76 21.1501 63.17 20.7401 63.61C20.6763 63.6653 20.6057 63.7124 20.5301 63.75H19.8501C19.8501 63.55 20.0301 63.46 20.1601 63.35L22.4401 61.35C22.9501 60.88 23.5001 60.43 23.9701 60Z" fill="#00DE78"/>
<path d="M16.91 57.9099H16.23C16.23 57.7799 16.32 57.7299 16.4 57.6699C17.56 56.7299 18.72 55.7999 19.88 54.8799C20.172 54.6206 20.4828 54.3832 20.81 54.1699H21.5C21.56 54.3099 21.44 54.3599 21.37 54.4199C20.46 55.1399 19.55 55.8599 18.65 56.5899C18.14 56.9999 17.65 57.3999 17.12 57.8199C17.0545 57.8595 16.9838 57.8897 16.91 57.9099Z" fill="#00D071"/>
<path d="M4.19995 57C4.61972 57.0456 5.03692 57.1123 5.44995 57.2C5.77995 57.2724 6.11383 57.3258 6.44995 57.36C6.51099 57.4456 6.54888 57.5455 6.55995 57.65C6.53997 57.8996 6.53997 58.1504 6.55995 58.4C6.55995 58.49 6.55995 58.57 6.55995 58.64C6.13995 58.64 5.73995 58.52 5.32995 58.46L4.71995 58.37C4.49841 57.9331 4.32409 57.4739 4.19995 57Z" fill="#00A35B"/>
<path d="M12.5999 57.9299C12.1499 57.9299 11.6999 57.9299 11.2599 57.9299C11.0599 57.9299 10.9499 57.9299 10.8999 58.1699C10.8499 58.4099 10.8099 58.3599 10.7699 58.4599C10.6824 58.4896 10.5875 58.4896 10.4999 58.4599L7.61991 57.9999C7.52991 57.9999 7.41991 57.9999 7.34991 57.8999C7.31683 57.6626 7.37006 57.4213 7.49991 57.2199C7.49377 57.2004 7.49377 57.1795 7.49991 57.1599C7.58821 57.1352 7.68161 57.1352 7.76991 57.1599C8.76991 57.3299 9.81991 57.5899 10.8599 57.7499L11.0099 57.8099C11.1799 57.9399 11.3699 57.8099 11.5599 57.8799H12.4999C12.5379 57.8848 12.5732 57.9025 12.5999 57.9299Z" fill="#00BA67"/>
<path d="M20.8101 54.1699C20.5138 54.4427 20.2034 54.6997 19.8801 54.9399C19.3001 55.4199 18.7001 55.9399 18.1101 56.3699L16.7301 57.4599C16.5429 57.5854 16.3745 57.7369 16.2301 57.9099H15.5801C15.5201 57.7899 15.6301 57.7499 15.6901 57.6999C16.1501 57.3099 16.6301 56.9399 17.0901 56.5499C17.5501 56.1599 18.3101 55.6499 18.8901 55.1699C19.2601 54.8599 19.6501 54.5799 20.0101 54.2599C20.0554 54.2228 20.106 54.1924 20.1601 54.1699H20.8101Z" fill="#00C76D"/>
<path d="M0.639893 50.0801C1.17989 50.0801 1.69989 50.2501 2.22989 50.3301L2.92989 50.4501C3.08989 50.4501 3.24989 50.4501 3.20989 50.7301C3.20989 51.2601 3.20989 51.7901 3.20989 52.3201C3.06989 52.2601 3.11989 52.1301 3.10989 52.0301C3.10989 51.5001 3.20989 51.5401 2.60989 51.4301L1.09989 51.1701C1.01677 51.168 0.936381 51.14 0.869893 51.0901C0.759079 50.7621 0.682013 50.4237 0.639893 50.0801Z" fill="#00A55C"/>
<path d="M0.870117 51.0901C1.29033 51.1323 1.70771 51.1991 2.12012 51.2901C2.42012 51.2901 2.71012 51.4001 3.01012 51.4501C3.14012 51.4501 3.16012 51.5201 3.16012 51.6201C3.12997 51.8524 3.12997 52.0877 3.16012 52.3201L3.21012 52.8301C3.0688 52.717 2.89944 52.6445 2.72012 52.6201C2.32012 52.5301 1.91012 52.4601 1.50012 52.4001C1.42278 52.392 1.34791 52.3682 1.28012 52.3301C1.09947 51.9326 0.962015 51.5169 0.870117 51.0901Z" fill="#009E59"/>
<path d="M7.38008 57.8301C7.77008 57.9401 8.17008 57.9801 8.57008 58.0601C9.31008 58.2101 10.0501 58.2901 10.7801 58.4801L10.5401 59.1101L9.31008 58.9101L7.22008 58.5601C7.20295 58.5224 7.19409 58.4815 7.19409 58.4401C7.19409 58.3987 7.20295 58.3578 7.22008 58.3201C7.2399 58.154 7.2399 57.9862 7.22008 57.8201C7.23103 57.8098 7.24397 57.8019 7.2581 57.7968C7.27223 57.7917 7.28726 57.7896 7.30225 57.7905C7.31724 57.7914 7.33188 57.7954 7.34526 57.8022C7.35865 57.809 7.3705 57.8185 7.38008 57.8301Z" fill="#00B966"/>
<path d="M18.11 57.9099H17.5C17.5 57.7599 17.6 57.7199 17.67 57.6599L19.73 55.9999C20.48 55.3999 21.25 54.7999 22 54.1899H22.64C22.7 54.3299 22.58 54.3799 22.51 54.4399L18.38 57.7299C18.2999 57.8036 18.2088 57.8643 18.11 57.9099Z" fill="#00DD78"/>
<path d="M22.55 65.8101H23.15C23.21 65.9601 23.08 66.0101 23.01 66.0901C22.2 66.9001 21.38 67.7101 20.57 68.5301C20.22 68.8901 19.85 69.2201 19.48 69.5301H18.84C18.78 69.4401 18.84 69.3901 18.91 69.3401C19.83 68.4801 20.7 67.5601 21.6 66.6701C21.84 66.4401 22.08 66.2001 22.31 65.9601C22.381 65.8968 22.4621 65.8461 22.55 65.8101Z" fill="#00BC68"/>
<path d="M20.5 63.74C20.8646 63.3602 21.252 63.0028 21.66 62.67C21.98 62.36 22.33 62.08 22.66 61.79L24.5 60.17C24.5551 60.1171 24.6023 60.0564 24.64 59.99H25.28C25.17 60.25 24.91 60.36 24.72 60.55C24.53 60.74 24.01 61.19 23.65 61.55L22.2 62.75L21.28 63.57C21.23 63.57 21.17 63.66 21.17 63.74H20.5Z" fill="#00E37B"/>
<path d="M20.2601 57.9099H19.6201C19.6201 57.7899 19.7001 57.7399 19.7701 57.6799L23.2601 54.8799L24.1501 54.1699H24.7501C24.8101 54.3099 24.6901 54.3599 24.6201 54.4199C23.6201 55.2199 22.6201 56.0299 21.6201 56.8399C21.1501 57.1999 20.6901 57.5299 20.2601 57.9099Z" fill="#00ED80"/>
<path d="M21.5001 69.5601H20.9101C20.8401 69.4201 20.9601 69.3701 21.0301 69.3001L22.5001 67.8601C23.1601 67.2301 23.8001 66.5801 24.4501 65.9301L24.5801 65.8101H25.1801C25.2401 65.9101 25.1801 65.9701 25.1101 66.0201C24.5301 66.5801 23.9901 67.1601 23.4001 67.7001C22.8101 68.2401 22.2701 68.8201 21.7101 69.3801C21.6475 69.4482 21.577 69.5086 21.5001 69.5601Z" fill="#00D674"/>
<path d="M20.16 54.1699C19.9161 54.4289 19.6444 54.6603 19.35 54.8599C18.81 55.3299 18.23 55.7599 17.65 56.1899C17.07 56.6199 16.32 57.2699 15.65 57.7999C15.6144 57.8272 15.5896 57.8661 15.58 57.9099H15.03C14.97 57.7699 15.09 57.7199 15.16 57.6599L17.16 56.0399C17.94 55.4199 18.71 54.7799 19.5 54.1699H20.16Z" fill="#00C16A"/>
<path d="M13.57 57.9099H12.97C12.91 57.7999 12.97 57.7499 13.06 57.7099C13.87 57.0399 14.7 56.3899 15.52 55.7099C16.18 55.1799 16.83 54.6499 17.52 54.1399H18.11C18.11 54.2899 17.99 54.3599 17.89 54.4399C16.43 55.5999 15.01 56.7699 13.57 57.9099Z" fill="#00A55C"/>
<path d="M24.1501 54.1699C24.0501 54.4199 23.8001 54.5199 23.6101 54.6699L19.9201 57.6699C19.8028 57.7386 19.7007 57.8305 19.6201 57.9399H19.0701C19.0101 57.8199 19.0701 57.7599 19.1801 57.7099C19.9001 57.1299 20.6101 56.5399 21.3401 55.9799L23.6001 54.1999L24.1501 54.1699Z" fill="#00E87D"/>
<path d="M27.13 60C26.7378 60.4122 26.3203 60.7996 25.88 61.16C25.57 61.46 25.23 61.73 24.88 62.01L23.09 63.59C23.03 63.59 22.98 63.67 22.98 63.75H22.5C22.43 63.6 22.56 63.54 22.64 63.47L23.94 62.32L25.69 60.78C25.98 60.52 26.27 60.25 26.58 60H27.13Z" fill="#00F182"/>
<path d="M13.7499 63.74H13.1499C13.1499 63.58 13.2899 63.51 13.3799 63.43C14.0199 62.88 14.6299 62.31 15.2699 61.76C15.9099 61.21 16.5199 60.63 17.1699 60.09L17.3199 59.99H17.8699C17.9299 60.08 17.8699 60.13 17.8099 60.18L15.4299 62.26C14.8699 62.76 14.3199 63.26 13.7499 63.74Z" fill="#017F49"/>
<path d="M19.5 69.5601C19.5572 69.4325 19.6469 69.3222 19.76 69.2401C20.9 68.2401 21.95 67.0601 23.06 65.9801C23.11 65.9801 23.17 65.8901 23.17 65.8101H23.76C23.82 65.9001 23.76 65.9501 23.7 66.0001C22.52 67.1501 21.36 68.3101 20.2 69.4701C20.168 69.5054 20.1309 69.5357 20.09 69.5601H19.5Z" fill="#00C46C"/>
<path d="M11.5499 57.9099H11.1099C11.0399 57.9099 11.0099 57.9099 11.0399 57.8199C11.0354 57.7713 11.0442 57.7224 11.0654 57.6783C11.0865 57.6343 11.1192 57.5968 11.1599 57.5699C11.2575 57.5533 11.348 57.508 11.4199 57.4399L15.3299 54.2999L15.5399 54.1599H16.0899C16.1499 54.2899 16.0199 54.3299 15.9599 54.3799C15.2299 54.9799 14.4999 55.5599 13.7699 56.1399L11.7699 57.7399L11.5499 57.9099Z" fill="#01894E"/>
<path d="M26.5001 60C26.3701 60.28 26.0901 60.4 25.8901 60.6C25.6901 60.8 25.2601 61.16 24.9401 61.44C24.3201 61.98 23.6901 62.51 23.1001 63.07C22.8701 63.28 22.5601 63.44 22.4201 63.75H21.8201C22.1531 63.3958 22.5071 63.0619 22.8801 62.75C23.2001 62.44 23.5501 62.16 23.8801 61.86L25.7601 60.21C25.834 60.1414 25.895 60.0601 25.9401 59.97L26.5001 60Z" fill="#00EE80"/>
<path d="M21.9999 54.1701C21.8699 54.4401 21.5899 54.5601 21.3699 54.7401C20.5799 55.3901 19.7799 56.0201 18.9799 56.6601L17.4999 57.8201C17.4711 57.8433 17.4502 57.8747 17.4399 57.9101H16.8899C17.1971 57.6093 17.5319 57.3381 17.8899 57.1001C18.6899 56.4401 19.5099 55.8001 20.3199 55.1001L21.3199 54.3401C21.3999 54.2801 21.4799 54.2301 21.4999 54.1201L21.9999 54.1701Z" fill="#00D675"/>
<path d="M13.75 63.74C13.85 63.52 14.06 63.42 14.22 63.26C14.38 63.1 14.86 62.71 15.22 62.43C15.83 61.89 16.45 61.36 17.05 60.82C17.32 60.58 17.58 60.33 17.85 60.11C17.8692 60.0966 17.8848 60.0786 17.8953 60.0576C17.9058 60.0367 17.9108 60.0134 17.91 59.99H18.46C18.52 60.08 18.46 60.13 18.4 60.18C17.6 60.87 16.82 61.57 16.03 62.26L14.7 63.44C14.5766 63.557 14.4389 63.6578 14.29 63.74H13.75Z" fill="#01894E"/>
<path d="M9.80009 62.82V62.55C9.80009 62.44 9.80009 62.33 9.80009 62.23C9.80009 62.13 9.98009 62.17 10.0601 62.11L12.5001 60H13.2301C13.2901 60.12 13.2301 60.18 13.1201 60.24C12.1201 61.07 11.2301 61.93 10.2601 62.75C10.1701 62.83 10.1001 62.92 10.0101 62.99C9.92009 63.06 9.86009 63.1 9.78009 62.99C9.77168 62.9326 9.77858 62.8739 9.80009 62.82Z" fill="#013C28"/>
<path d="M18.1101 57.9099C18.4033 57.6136 18.7211 57.3426 19.0601 57.0999L21.2601 55.3299L22.4601 54.3899C22.5401 54.3299 22.6301 54.2799 22.6401 54.1699H23.1901C23.1901 54.3399 23.0601 54.3999 22.9601 54.4799C22.2801 55.0399 21.5801 55.5799 20.8901 56.1399L18.8901 57.7699L18.6801 57.9099H18.1101Z" fill="#00E17A"/>
<path d="M7.6499 63.25C7.88493 63.2251 8.12254 63.2455 8.3499 63.31C8.7099 63.37 9.0699 63.47 9.4399 63.51C9.8099 63.55 9.7999 63.61 9.7599 63.87C9.7555 63.9032 9.7555 63.9369 9.7599 63.97L9.8199 64.57C9.7199 64.65 9.6199 64.62 9.5099 64.57L8.5099 64.38C8.38404 64.3599 8.25577 64.3599 8.1299 64.38C7.92463 64.0242 7.76344 63.6448 7.6499 63.25Z" fill="#009F59"/>
<path d="M22.55 65.8101L22.37 66.0101L19.16 69.2301C19.05 69.3401 18.87 69.3801 18.84 69.5601H18.29C18.29 69.4501 18.36 69.4001 18.42 69.3401C18.98 68.7701 19.57 68.2201 20.13 67.6501C20.69 67.0801 21.28 66.5601 21.8 66.0001C21.8569 65.9355 21.9246 65.8814 22 65.8401L22.55 65.8101Z" fill="#00B363"/>
<path d="M19.5001 54.1699C19.3701 54.4199 19.1101 54.5399 18.9101 54.7099C18.1701 55.3199 17.4101 55.9199 16.6601 56.5199L15.1901 57.6899C15.1101 57.7499 15.0301 57.7999 15.0101 57.9099H14.5001C14.4401 57.7799 14.5001 57.7399 14.6201 57.6799L17.3501 55.4999C17.9101 55.0499 18.4701 54.5999 19.0401 54.1699H19.5001Z" fill="#00BA67"/>
<path d="M17.6899 63.74C18.0401 63.3815 18.4143 63.0474 18.8099 62.74C19.1599 62.41 19.5399 62.1 19.8999 61.74C20.4999 61.21 21.0899 60.67 21.6899 60.15C21.7385 60.1036 21.779 60.0496 21.8099 59.99H22.3699C22.4299 60.12 22.3699 60.18 22.2499 60.23C21.3899 60.93 20.5699 61.68 19.7299 62.41C19.2799 62.8 18.8299 63.19 18.3999 63.6C18.3355 63.6546 18.2651 63.7015 18.1899 63.74H17.6899Z" fill="#00C46B"/>
<path d="M21.13 60C21.04 60.22 20.83 60.31 20.67 60.46C20.2 60.9 19.67 61.32 19.22 61.74L17.41 63.34C17.2473 63.4479 17.1079 63.5873 17 63.75H16.5C16.5 63.65 16.56 63.6 16.62 63.55C17.62 62.72 18.53 61.86 19.49 61.02C19.87 60.69 20.26 60.36 20.63 60.02L21.13 60Z" fill="#00B263"/>
<path d="M19.8001 65.8101H20.3001C20.3001 65.9101 20.2501 65.9601 20.1901 66.0201L18.0001 68.2201C17.6135 68.5733 17.2463 68.9472 16.9001 69.3401C16.8206 69.4215 16.7336 69.4952 16.6401 69.5601H16.0901C16.0301 69.4501 16.0901 69.3901 16.1801 69.3301C17.3501 68.2301 18.4701 67.0701 19.6101 65.9401C19.6668 65.8878 19.7308 65.844 19.8001 65.8101Z" fill="#009152"/>
<path d="M18.88 60H19.43C19.49 60.12 19.43 60.18 19.32 60.24C19.0206 60.5226 18.7069 60.7896 18.38 61.04C17.76 61.55 17.19 62.11 16.58 62.63C16.14 63 15.74 63.42 15.26 63.75H14.76C14.76 63.64 14.82 63.58 14.89 63.53C15.6 62.93 16.28 62.3 16.98 61.69L18.88 60Z" fill="#009856"/>
<path d="M13.5701 57.9101C13.6801 57.6601 13.9401 57.5501 14.1401 57.3901C14.9501 56.7201 15.7701 56.0801 16.5801 55.3901L17.8001 54.3901C17.9101 54.3001 18.0001 54.1901 18.1001 54.0901H18.6101C18.6701 54.2201 18.5401 54.2601 18.4801 54.3101C17.7801 54.8901 17.0601 55.4401 16.3501 56.0101L14.0701 57.8301L13.5701 57.9101Z" fill="#00AF61"/>
<path d="M13.93 65.8101H14.66C14.73 65.9101 14.66 65.9701 14.59 66.0201C13.96 66.6401 13.37 67.3001 12.7 67.8801C12.5 68.0601 12.31 68.2601 12.12 68.4601C11.93 68.6601 12.04 68.5701 11.96 68.5801C11.8675 68.5627 11.7803 68.5237 11.7056 68.4664C11.6309 68.4091 11.5708 68.335 11.53 68.2501C11.5528 68.1481 11.6136 68.0587 11.7 68.0001C12.44 67.3501 13.09 66.6301 13.8 65.9401L13.93 65.8101Z" fill="#013C28"/>
<path d="M1.31006 52.3301C1.76186 52.356 2.21037 52.423 2.65006 52.5301C2.77006 52.5301 2.89006 52.5901 3.01006 52.6001C3.13006 52.6101 3.20006 52.7101 3.24006 52.8301L3.38006 53.7501C3.29792 53.77 3.2122 53.77 3.13006 53.7501C2.71807 53.7 2.31031 53.6198 1.91006 53.5101C1.6693 53.1388 1.4682 52.7433 1.31006 52.3301Z" fill="#009655"/>
<path d="M11.96 68.5601C12.23 68.2701 12.51 68.0001 12.8 67.7301C13.42 67.1401 14.02 66.5201 14.62 65.9101C14.62 65.9101 14.62 65.8401 14.62 65.8101H15.27C15.33 65.9101 15.27 65.9701 15.19 66.0201C14.6 66.6201 14.01 67.2301 13.39 67.8001C13.13 68.0301 12.89 68.2901 12.64 68.5301C12.533 68.6587 12.3955 68.7584 12.24 68.8201C12.14 68.7801 11.99 68.7401 11.96 68.5601Z" fill="#01442C"/>
<path d="M9.81009 63C9.90009 63 9.96009 63 10.0301 62.9L12.3001 60.9L13.1201 60.17C13.1801 60.12 13.2401 60.08 13.2401 59.99H13.8401C13.8401 60.1 13.7701 60.15 13.7001 60.21C12.6201 61.16 11.5301 62.11 10.4701 63.09L10.1201 63.38C10.0887 63.4088 10.0477 63.4248 10.0051 63.4248C9.9625 63.4248 9.92146 63.4088 9.89009 63.38C9.87748 63.3906 9.86155 63.3964 9.84509 63.3964C9.82863 63.3964 9.8127 63.3906 9.80009 63.38C9.76667 63.255 9.77014 63.123 9.81009 63Z" fill="#01432C"/>
<path d="M18.88 60C18.76 60.28 18.48 60.4 18.28 60.6C17.93 60.94 17.56 61.25 17.19 61.6C16.58 62.14 15.96 62.67 15.35 63.22C15.1322 63.383 14.9342 63.571 14.76 63.78H14.25C14.56 63.5 14.86 63.21 15.18 62.94C15.5 62.67 15.83 62.37 16.18 62.09L17.99 60.49C18.14 60.35 18.35 60.25 18.44 60.03L18.88 60Z" fill="#009152"/>
<path d="M11.55 57.9099C11.65 57.6999 11.87 57.5999 12.04 57.4599L16.04 54.2899C16.0637 54.2788 16.0843 54.262 16.1 54.2411C16.1157 54.2202 16.126 54.1958 16.13 54.1699H16.63C16.63 54.3099 16.53 54.3699 16.44 54.4299L13.44 56.7899C12.97 57.1599 12.52 57.5499 12.05 57.9099H11.55Z" fill="#009152"/>
<path d="M10.5 63.65C10.81 63.56 10.99 63.29 11.22 63.1C11.8467 62.56 12.4667 62.01 13.08 61.45C13.56 61.03 14.03 60.62 14.5 60.19C14.5647 60.1257 14.6389 60.0718 14.72 60.03H15.18C15.23 60.22 15.07 60.28 14.97 60.37C14.56 60.71 14.17 61.07 13.77 61.43L11.34 63.58C11.2679 63.6581 11.1753 63.7145 11.0728 63.7428C10.9703 63.7711 10.862 63.7701 10.76 63.74C10.66 63.69 10.57 63.71 10.5 63.65Z" fill="#015735"/>
<path d="M17.32 60C17.02 60.34 16.64 60.61 16.32 60.92C16 61.23 15.64 61.51 15.32 61.8C14.83 62.23 14.32 62.65 13.86 63.1C13.6055 63.2927 13.371 63.5105 13.16 63.75H12.7C12.7 63.64 12.76 63.59 12.82 63.53L15.17 61.45C15.67 61.02 16.12 60.55 16.65 60.16C16.7225 60.101 16.7994 60.0475 16.88 60H17.32Z" fill="#017745"/>
<path d="M12.05 57.9099C12.05 57.7999 12.16 57.7499 12.23 57.6899L14.23 56.1199L16.12 54.6199C16.3104 54.4947 16.4821 54.3432 16.63 54.1699H17.13C17.13 54.2799 17.06 54.3299 17 54.3899C16.3 54.9599 15.59 55.5099 14.88 56.0499C14.17 56.5899 13.42 57.2099 12.7 57.7899C12.643 57.8391 12.579 57.8796 12.51 57.9099H12.05Z" fill="#009856"/>
<path d="M18.42 65.8101H18.84C18.9 65.9101 18.84 65.9701 18.76 66.0201C17.76 67.0201 16.84 68.0201 15.85 68.9201L15.17 69.5601H14.71C14.65 69.4801 14.71 69.4301 14.71 69.3901C15.32 68.8101 15.88 68.1901 16.49 67.6101C17.1 67.0301 17.57 66.6101 18.11 66.0201C18.1992 65.9312 18.3044 65.8599 18.42 65.8101Z" fill="#017A47"/>
<path d="M15.4999 54.1699C15.3899 54.3899 15.1599 54.4899 14.9899 54.6299C13.9899 55.4899 12.8699 56.3299 11.8099 57.1799L11.3399 57.5599C11.2799 57.5599 11.2199 57.6799 11.1399 57.5599C11.1484 57.3128 11.2482 57.0777 11.4199 56.8999C11.8229 56.6414 12.2042 56.3504 12.5599 56.0299C13.2099 55.5199 13.8399 55.0299 14.4999 54.4899C14.6599 54.3699 14.7899 54.1899 14.9899 54.1299L15.4999 54.1699Z" fill="#01814A"/>
<path d="M15.26 63.74C15.58 63.37 15.99 63.1 16.33 62.74C16.67 62.38 16.98 62.19 17.33 61.9C17.91 61.35 18.53 60.9 19.13 60.36C19.2783 60.2652 19.3963 60.1298 19.47 59.97H19.93C19.93 60.07 19.88 60.12 19.82 60.18L17.82 61.93L16.09 63.46L15.78 63.72L15.26 63.74Z" fill="#00A15A"/>
<path d="M17.0501 65.8101H17.5501C17.5501 65.9301 17.5501 66.0001 17.4401 66.0701C17.0001 66.5101 16.5801 66.9901 16.1001 67.3901C15.3701 67.9901 14.7501 68.7101 14.1001 69.3901C13.9701 69.5201 13.8401 69.5201 13.5801 69.3901C13.6394 69.2169 13.7513 69.0666 13.9001 68.9601C14.3501 68.5501 14.7601 68.0901 15.2101 67.6801C15.6601 67.2701 16.1601 66.7401 16.6401 66.2801C16.763 66.112 16.9002 65.9547 17.0501 65.8101Z" fill="#01643C"/>
<path d="M20.0701 69.5601C20.0701 69.4601 20.1701 69.4101 20.2301 69.3401L22.4201 67.1501C22.8301 66.7401 23.2501 66.3501 23.6701 65.9501C23.691 65.933 23.7081 65.9117 23.7202 65.8876C23.7322 65.8635 23.739 65.837 23.7401 65.8101H24.2001C24.2701 65.9501 24.1501 66.0001 24.0801 66.0701L22.9001 67.2201C22.2701 67.8401 21.6301 68.4701 21.0101 69.1001C20.86 69.2634 20.6997 69.4171 20.5301 69.5601H20.0701Z" fill="#00CB6F"/>
<path d="M19.7999 65.8101L19.0999 66.5301C18.4099 67.2301 17.7099 67.9201 17.0199 68.6101C16.7599 68.8701 16.4899 69.1101 16.2299 69.3601C16.1699 69.4201 16.0899 69.4601 16.0899 69.5601H15.6299C15.6299 69.4001 15.7199 69.3301 15.8099 69.2401C16.7099 68.4001 17.5699 67.5201 18.4399 66.6501L19.0999 66.0001C19.1684 65.9261 19.2497 65.8652 19.3399 65.8201L19.7999 65.8101Z" fill="#01894E"/>
<path d="M12.5 57.9099C12.8376 57.5809 13.1985 57.2768 13.58 56.9999C14.2 56.4999 14.82 55.9999 15.46 55.5199C16.1 55.0399 16.41 54.7399 16.9 54.3799C16.9706 54.3243 17.0344 54.2605 17.09 54.1899H17.5C17.4 54.4299 17.16 54.5099 16.99 54.6499C15.99 55.4499 14.99 56.2299 14.04 57.0199L13.04 57.7999C13.0124 57.8123 12.9886 57.8317 12.971 57.8564C12.9534 57.881 12.9427 57.9098 12.94 57.9399H12.6L12.5 57.9099Z" fill="#009F59"/>
<path d="M16.6399 69.5601C16.6899 69.3701 16.8699 69.2901 16.9899 69.1601C17.5199 68.6001 18.0799 68.0701 18.6199 67.5201C19.1599 66.9701 19.7399 66.3801 20.2999 65.8101H20.7599C20.8399 65.9201 20.7599 65.9801 20.6899 66.0401C20.3299 66.4001 19.9399 66.7501 19.5499 67.0401C19.3899 67.1801 19.2699 67.3601 19.1199 67.5101C18.4899 68.1401 17.8499 68.7601 17.2199 69.4001C17.1696 69.4458 17.1122 69.483 17.0499 69.5101L16.6399 69.5601Z" fill="#009A57"/>
<path d="M4.71997 58.3799C4.85997 58.2699 5.00997 58.3799 5.14997 58.3799C5.57997 58.3799 5.98997 58.5499 6.41997 58.5599C6.47997 58.5599 6.49997 58.6199 6.53997 58.6499C6.68505 58.9622 6.74706 59.3067 6.71997 59.6499C6.65997 59.7599 6.55997 59.7499 6.45997 59.7399C6.35997 59.7299 5.99997 59.6499 5.76997 59.5999C5.62192 59.5658 5.46802 59.5658 5.31997 59.5999C5.07159 59.2189 4.87014 58.8093 4.71997 58.3799Z" fill="#009D58"/>
<path d="M19.3399 65.81L18.1999 67C17.6999 67.51 17.1999 68 16.6799 68.52L15.7999 69.35C15.7291 69.419 15.6715 69.5003 15.6299 69.59H15.1699C15.1699 69.48 15.2699 69.42 15.3399 69.36C16.4999 68.27 17.5599 67.14 18.6699 66C18.7399 65.94 18.8299 65.88 18.8399 65.77L19.3399 65.81Z" fill="#01824B"/>
<path d="M23.9701 60C23.8601 60.26 23.6001 60.37 23.4201 60.56C23.2401 60.75 22.7801 61.11 22.4201 61.39C21.8001 61.93 21.1801 62.46 20.5801 63.01C20.3019 63.2332 20.0443 63.4809 19.8101 63.75H19.3501C19.3501 63.57 19.5001 63.5 19.6101 63.4L22.2601 61.06C22.6301 60.74 22.9901 60.41 23.3601 60.06C23.4071 60.0175 23.4613 59.9836 23.5201 59.96L23.9701 60Z" fill="#00D775"/>
<path d="M18.4199 65.8101C18.0599 66.2101 17.6699 66.5901 17.2799 66.9601C16.8899 67.3301 16.7899 67.4701 16.5299 67.7101C16.2699 67.9501 15.9499 68.2701 15.6699 68.5501C15.3899 68.8301 15.1899 69.0301 14.9699 69.2901C14.8799 69.3801 14.7199 69.4001 14.7099 69.5601C14.5249 69.5952 14.3349 69.5952 14.1499 69.5601C14.8399 68.8801 15.5099 68.1701 16.2399 67.5601C16.6099 67.2401 16.9399 66.8701 17.2399 66.5601C17.4543 66.3341 17.6814 66.1204 17.9199 65.9201L18.4199 65.8101Z" fill="#017343"/>
<path d="M22.0001 65.8101C21.8013 66.0687 21.5805 66.3096 21.3401 66.5301C21.0801 66.7901 20.8001 67.0301 20.5601 67.3001C20.336 67.5458 20.099 67.7795 19.8501 68.0001C19.3201 68.5101 18.7901 69.0001 18.2901 69.5601H17.8301C17.8301 69.4501 17.9001 69.4001 17.9601 69.3401C18.5901 68.7301 19.2101 68.1001 19.8201 67.4901C20.4301 66.8801 20.9601 66.3601 21.5401 65.8101H22.0001Z" fill="#00AC60"/>
<path d="M21.5 65.8101C21.3312 66.0686 21.1219 66.2982 20.88 66.4901C20.6 66.7801 20.32 67.0601 20.03 67.3401L19.27 68.0701C19.01 68.3301 18.76 68.6101 18.5 68.8701C18.24 69.1301 18.01 69.3101 17.79 69.5601H17.5C17.43 69.4701 17.5 69.4001 17.55 69.3401C18.68 68.2801 19.75 67.1601 20.85 66.0701C20.94 65.9647 21.0484 65.8766 21.17 65.8101H21.5Z" fill="#00A65C"/>
<path d="M14.71 60C14.3261 60.3875 13.9222 60.7547 13.5 61.1C13.16 61.43 12.79 61.73 12.44 62.04L10.71 63.59C10.63 63.67 10.56 63.59 10.48 63.59C10.4 63.59 10.38 63.59 10.34 63.59C10.3 63.59 10.34 63.42 10.43 63.36L13 61.09C13.37 60.76 13.73 60.43 14.12 60.09L14.3 60H14.71Z" fill="#015032"/>
<path d="M11.91 63.74H11.5C11.5 63.64 11.5 63.5899 11.61 63.5299L13.27 62L15 60.47L15.58 59.95H16.08C16.08 60.04 16.08 60.0899 15.98 60.1399C14.91 61.0699 13.85 62.02 12.77 62.95C12.5 63.24 12.22 63.51 11.91 63.74Z" fill="#01623B"/>
<path d="M8.11011 64.3799C8.11011 64.2399 8.25011 64.2999 8.33011 64.3099L9.85011 64.5699L10.0201 65.5699C9.92011 65.6599 9.81011 65.5699 9.70011 65.5699C9.37239 65.4909 9.03713 65.4473 8.70011 65.4399C8.47088 65.1057 8.27335 64.7508 8.11011 64.3799Z" fill="#009A57"/>
<path d="M20.5 69.56C20.5 69.46 20.6 69.41 20.66 69.34L22.55 67.45L24.05 66C24.11 65.94 24.2 65.89 24.2 65.78H24.61C24.61 65.86 24.56 65.9 24.51 65.95C23.99 66.47 23.51 66.95 22.94 67.52L21.09 69.33C21.03 69.39 20.95 69.43 20.95 69.53L20.5 69.56Z" fill="#00D071"/>
<path d="M14.2999 60C14.0427 60.2677 13.7652 60.5151 13.4699 60.74C13.1399 61.07 12.7599 61.36 12.4099 61.67L10.4999 63.37C10.4299 63.42 10.3599 63.47 10.3599 63.57C10.1966 63.5584 10.0387 63.5069 9.8999 63.42C10.1599 63.42 10.2799 63.18 10.4399 63.03C11.2599 62.3 12.0799 61.57 12.9099 60.85C13.2299 60.57 13.5399 60.28 13.8499 59.99L14.2999 60Z" fill="#014A2F"/>
<path d="M25.5001 54.1699C25.3801 54.4099 25.1301 54.5199 24.9401 54.6799C23.9401 55.4799 22.9401 56.2599 22.0001 57.0399L21.0901 57.7599C21.0339 57.7971 20.9889 57.849 20.9601 57.9099H20.5501C20.4901 57.7899 20.6001 57.7499 20.6601 57.6999C21.1601 57.2799 21.6601 56.8799 22.1901 56.4699L24.9201 54.2799C24.9712 54.2353 25.0284 54.1983 25.0901 54.1699H25.5001Z" fill="#00F282"/>
<path d="M15.58 60C15.5129 60.1527 15.4014 60.2816 15.26 60.37C14.79 60.8 14.31 61.22 13.83 61.63C13.35 62.04 12.67 62.63 12.1 63.15C11.8633 63.3235 11.6484 63.5249 11.46 63.75C11.2255 63.7951 10.9845 63.7951 10.75 63.75C11.04 63.82 11.21 63.61 11.4 63.45C11.88 63.03 12.4 62.63 12.85 62.18C13.3 61.73 13.85 61.32 14.31 60.87L15.05 60.22C15.05 60.17 15.17 60.13 15.17 60.04L15.58 60Z" fill="#015D39"/>
<path d="M19.0201 63.74H18.6101C18.6101 63.54 18.7901 63.45 18.9201 63.34C19.9201 62.42 21.0201 61.51 22.0501 60.57C22.2649 60.3632 22.492 60.1695 22.7301 59.99H23.1501C23.2101 60.09 23.1501 60.15 23.0601 60.2C22.2001 60.94 21.3701 61.72 20.5101 62.46C20.0801 62.83 19.6401 63.2 19.2201 63.6L19.0201 63.74Z" fill="#00CE70"/>
<path d="M17.97 65.81C17.91 66.01 17.72 66.1 17.6 66.23C17.24 66.61 16.85 66.96 16.48 67.32L14.39 69.37C14.32 69.43 14.26 69.52 14.15 69.53C13.8554 69.5038 13.566 69.4365 13.29 69.33C13.39 69.18 13.47 69.33 13.56 69.33C13.641 69.3895 13.7422 69.4144 13.8415 69.3994C13.9409 69.3844 14.0302 69.3307 14.09 69.25C14.6138 68.6646 15.1714 68.1103 15.76 67.59C16.33 67.11 16.82 66.59 17.36 66.06C17.4406 65.9873 17.5052 65.8988 17.55 65.8L17.97 65.81Z" fill="#016B3F"/>
<path d="M14.0701 57.9099C14.1901 57.6599 14.4501 57.5499 14.6501 57.3899C15.4401 56.7399 16.2401 56.1099 17.0501 55.4699L18.5001 54.3099C18.5501 54.3099 18.6001 54.2399 18.6101 54.1699H19.0201C18.9101 54.3899 18.6901 54.4899 18.5101 54.6299C17.5101 55.4799 16.4201 56.2999 15.3801 57.1299C15.1201 57.3399 14.8601 57.5499 14.5901 57.7499C14.5401 57.7499 14.4801 57.8399 14.4801 57.9099H14.0701Z" fill="#00B363"/>
<path d="M11.9099 63.74C12.1818 63.4348 12.4796 63.1538 12.7999 62.9C13.2099 62.51 13.6499 62.16 14.0699 61.79L15.9599 60.13C16.0051 60.088 16.0454 60.0411 16.0799 59.99H16.4999C16.4499 60.21 16.2499 60.29 16.1099 60.41L13.1099 63.06C12.8365 63.303 12.5494 63.53 12.2499 63.74H11.9099Z" fill="#016A3F"/>
<path d="M21.5 69.56C21.5033 69.53 21.5131 69.5011 21.5286 69.4752C21.5442 69.4493 21.5651 69.4271 21.59 69.41C22.16 68.84 22.72 68.24 23.32 67.7C23.92 67.16 24.5 66.57 25.07 66C25.13 65.95 25.21 65.9 25.21 65.8H25.62C25.62 65.96 25.53 66.03 25.44 66.12C24.8 66.77 24.15 67.41 23.44 68.04C22.73 68.67 22.44 69.04 21.91 69.55L21.5 69.56Z" fill="#00DE78"/>
<path d="M16.18 65.8101H16.64C16.64 65.9201 16.64 65.9801 16.54 66.0501C15.48 67.1201 14.37 68.1401 13.33 69.2201C13.3048 69.2512 13.2694 69.2725 13.23 69.2801C13.12 69.2801 12.99 69.2801 12.9 69.1301C12.81 68.9801 12.96 68.9801 13.01 68.9201C13.58 68.3601 14.13 67.7901 14.71 67.2501C15.29 66.7101 15.68 66.2901 16.18 65.8101Z" fill="#015836"/>
<path d="M22.7299 60C22.6399 60.22 22.4299 60.31 22.2799 60.46C21.9099 60.82 21.5099 61.15 21.1199 61.46C20.5499 61.96 19.9599 62.46 19.3999 62.97C19.1129 63.1938 18.8483 63.4449 18.6099 63.72H18.1899C18.5603 63.3393 18.9509 62.9787 19.3599 62.64C19.6599 62.36 19.9799 62.12 20.2699 61.85C20.8899 61.28 21.5199 60.74 22.1699 60.21C22.2499 60.15 22.3499 60.09 22.3699 59.97L22.7299 60Z" fill="#00C96E"/>
<path d="M11.8201 65.8101H12.8201C12.8201 65.9301 12.8201 66.0001 12.7101 66.0601L11.2701 67.5101C11.2427 67.5479 11.2066 67.5786 11.1648 67.5995C11.123 67.6204 11.0768 67.6309 11.0301 67.6301C10.8249 67.476 10.677 67.2578 10.6101 67.0101C11.0201 66.6401 11.4001 66.2001 11.8201 65.8101Z" fill="#01291F"/>
<path d="M12.4999 60C12.4394 60.1056 12.3577 60.1976 12.2599 60.27C11.7999 60.67 11.3399 61.09 10.8799 61.5L10.0199 62.27C9.94989 62.33 9.86989 62.38 9.83989 62.27C9.80989 62.16 9.89989 61.81 9.88989 61.58C9.88989 61.58 10.1299 61.5 10.2299 61.41C10.7199 60.97 11.2299 60.53 11.7199 60.08L12.4999 60Z" fill="#013424"/>
<path d="M20.5801 60C20.5095 60.1618 20.3908 60.298 20.2401 60.39L18.3401 62.08L16.6001 63.58L16.4501 63.75H16.0901C16.0901 63.55 16.2701 63.46 16.4001 63.35L18.7601 61.26C19.2401 60.84 19.7101 60.4 20.2101 60H20.5801Z" fill="#00AB5F"/>
<path d="M16.18 65.8101C16.18 65.9201 16.09 65.9701 16.02 66.0301L13.09 68.9201L12.92 69.1101C12.8476 69.1399 12.7674 69.1454 12.6916 69.1255C12.6158 69.1057 12.5485 69.0616 12.5 69.0001C12.79 68.6701 13.11 68.3801 13.42 68.0701L14.71 66.8001C15.03 66.4801 15.34 66.1601 15.71 65.8601L16.18 65.8101Z" fill="#015032"/>
<path d="M18.6499 57.9101C18.6499 57.7701 18.8099 57.7301 18.8999 57.6601L21.8999 55.2401L23.0599 54.2401C23.0953 54.2045 23.1256 54.1641 23.1499 54.1201H23.5599C23.5599 54.2001 23.4899 54.2401 23.4299 54.2901L20.6699 56.4801L19.2299 57.7001C19.1599 57.7601 19.0799 57.8101 19.0699 57.9101H18.6499Z" fill="#00E47C"/>
<path d="M13.9299 65.8101C13.9299 65.9101 13.8499 65.9501 13.7999 66.0101C13.2099 66.6001 12.6199 67.2001 12.0199 67.7801C11.8488 67.9179 11.6914 68.0719 11.5499 68.2401C11.3699 68.2401 11.3099 68.1001 11.2399 67.9701C11.1699 67.8401 11.3299 67.7601 11.4099 67.6801L13.2899 65.8101H13.9299Z" fill="#013524"/>
<path d="M15.0301 54.1699C14.6824 54.4885 14.3186 54.7889 13.9401 55.0699C13.2201 55.6599 12.4801 56.2499 11.7401 56.8299C11.6701 56.8899 11.6101 56.9799 11.5001 56.9499C11.3901 56.9199 11.5001 56.8899 11.5001 56.8599C11.5948 56.6199 11.7227 56.3944 11.8801 56.1899C12.2106 55.9732 12.5248 55.7326 12.8201 55.4699C13.3701 55.0399 13.9101 54.5899 14.4701 54.1699H15.0301Z" fill="#017A47"/>
<path d="M13.2499 69.2501C13.8699 68.5901 14.4999 67.9401 15.1699 67.3301C15.5799 66.9601 15.9499 66.5601 16.3299 66.1701C16.4399 66.0601 16.5899 65.9801 16.6399 65.8101H17.0499C16.9799 66.0001 16.8099 66.1001 16.6799 66.2301C15.8099 67.1101 14.9199 67.9801 14.0299 68.8401C13.8699 69.0001 13.7099 69.1701 13.5599 69.3401C13.4099 69.5101 13.3799 69.2401 13.2899 69.3401C13.2899 69.3401 13.2199 69.2701 13.2499 69.2501Z" fill="#015D39"/>
<path d="M8.70996 65.4801C8.76996 65.3301 8.87996 65.4101 8.97996 65.4201C9.32996 65.4201 9.66996 65.5701 9.97996 65.5801L10.08 65.8101C10.25 66.1101 10.33 66.4601 10.48 66.8101C10.4896 66.8268 10.4947 66.8458 10.4947 66.8651C10.4947 66.8844 10.4896 66.9034 10.48 66.9201C10.1961 66.9419 9.91075 66.908 9.63996 66.8201C9.28512 66.4063 8.9735 65.9573 8.70996 65.4801Z" fill="#009554"/>
<path d="M19.02 63.74C19.37 63.3814 19.7442 63.0473 20.14 62.74C20.55 62.36 20.99 62.01 21.41 61.64C21.83 61.27 22.47 60.64 23.02 60.2C23.08 60.15 23.14 60.11 23.15 60.02H23.56C23.2235 60.3644 22.8697 60.6915 22.5 61C22.22 61.28 21.9 61.53 21.6 61.79L19.7 63.41C19.59 63.51 19.49 63.63 19.39 63.74H19.02Z" fill="#00D373"/>
<path d="M12.28 63.74C12.38 63.54 12.58 63.45 12.74 63.31C13.55 62.65 14.3 61.93 15.08 61.24L16.5 60H16.87C16.71 60.25 16.44 60.36 16.24 60.55C15.82 60.93 15.4 61.31 14.97 61.68C14.36 62.21 13.78 62.77 13.15 63.28C12.9748 63.4136 12.8198 63.5719 12.69 63.75L12.28 63.74Z" fill="#017042"/>
<path d="M21.13 65.8101L20.91 66.0501C19.86 67.0501 18.8101 68.1401 17.7701 69.2001C17.6601 69.3101 17.45 69.3401 17.46 69.5601H17.05C17.58 68.9601 18.19 68.4301 18.75 67.8501C19.3032 67.2658 19.8874 66.7117 20.5 66.1901C20.61 66.1001 20.8001 66.0101 20.7901 65.8101H21.13Z" fill="#009F59"/>
<path d="M25.12 54.1699C24.8898 54.422 24.6315 54.6468 24.35 54.8399C23.63 55.4299 22.9 55.9999 22.17 56.5799L20.68 57.7699C20.63 57.7699 20.58 57.8399 20.58 57.9099H20.26C20.26 57.6999 20.52 57.6199 20.67 57.4999L23.93 54.8999L24.62 54.3499C24.68 54.2999 24.75 54.2499 24.75 54.1699H25.12Z" fill="#00F081"/>
<path d="M15.72 65.81C15.4845 66.1273 15.2126 66.4159 14.91 66.67L14.02 67.56L12.64 68.9C12.64 68.9 12.58 68.9 12.55 68.9C12.5234 68.9129 12.4942 68.9193 12.4647 68.9189C12.4352 68.9185 12.4062 68.9112 12.38 68.8976C12.3538 68.884 12.3311 68.8645 12.3138 68.8406C12.2964 68.8167 12.2849 68.7891 12.28 68.76C12.6534 68.445 13.0105 68.1113 13.35 67.76C13.97 67.19 14.55 66.58 15.15 65.99C15.22 65.93 15.3 65.88 15.31 65.77L15.72 65.81Z" fill="#014B2F"/>
<path d="M1.90991 53.52C2.40533 53.5567 2.89695 53.6337 3.37991 53.75L3.48991 54.16C3.56292 54.2316 3.61675 54.3204 3.64645 54.4183C3.67616 54.5162 3.68079 54.6199 3.65991 54.72C3.60776 54.7423 3.55163 54.7538 3.49491 54.7538C3.4382 54.7538 3.38207 54.7423 3.32991 54.72C3.07983 54.6937 2.83234 54.6468 2.58991 54.58C2.32208 54.2549 2.09381 53.899 1.90991 53.52Z" fill="#018F52"/>
<path d="M20.21 60C20.11 60.21 19.9 60.32 19.74 60.47C19.58 60.62 19.1 61.03 18.74 61.31C18.1 61.88 17.45 62.43 16.82 63.01C16.5418 63.2333 16.2841 63.4809 16.05 63.75H15.73C15.79 63.57 15.97 63.49 16.1 63.37C16.62 62.89 17.16 62.37 17.69 61.95L19.69 60.16C19.7416 60.1139 19.7854 60.0599 19.82 60H20.21Z" fill="#00A75D"/>
<path d="M10.5001 66.8601C10.3426 66.5393 10.2154 66.2045 10.1201 65.8601H11.8201C11.5246 66.2292 11.1892 66.5646 10.8201 66.8601C10.7401 66.9301 10.6701 67.0401 10.5401 67.0501C10.5228 67.0424 10.5076 67.0307 10.4957 67.0159C10.4838 67.0012 10.4756 66.9838 10.4717 66.9653C10.4678 66.9468 10.4683 66.9276 10.4733 66.9093C10.4782 66.891 10.4874 66.8742 10.5001 66.8601Z" fill="#01241C"/>
<path d="M14.44 54.1699C14.44 54.3099 14.28 54.3499 14.19 54.4199C13.49 54.9999 12.78 55.5599 12.07 56.1299C12.013 56.184 11.9385 56.2159 11.86 56.2199C11.8 56.0699 11.9301 55.9699 11.9701 55.8499C12.0692 55.6338 12.197 55.432 12.3501 55.2499C12.4501 55.2499 12.5001 55.2499 12.5601 55.1499L13.5601 54.3399C13.6404 54.2692 13.7315 54.2118 13.83 54.1699H14.44Z" fill="#017042"/>
<path d="M5.32007 59.52C5.38007 59.36 5.51007 59.43 5.61007 59.45C5.92007 59.45 6.23007 59.57 6.54007 59.64C6.58898 59.6547 6.64115 59.6547 6.69007 59.64C6.81007 59.72 6.79007 59.87 6.84007 59.99C6.89007 60.11 7.03007 60.36 6.95007 60.58C6.83334 60.6196 6.7068 60.6196 6.59007 60.58L5.94007 60.47C5.69931 60.1769 5.4914 59.8583 5.32007 59.52Z" fill="#009856"/>
<path d="M10.4999 66.86L10.5899 67C10.7021 67.2133 10.8362 67.4144 10.9899 67.6C11.1283 67.6817 11.229 67.8146 11.2699 67.97C11.3479 68.0747 11.4425 68.1659 11.5499 68.24C11.6678 68.3688 11.8064 68.4769 11.9599 68.56C12.0463 68.6616 12.1561 68.7405 12.2799 68.79C12.3561 68.8595 12.4492 68.9078 12.5499 68.93C12.6499 69.05 12.7899 69.06 12.9199 69.11C13.0146 69.1867 13.129 69.2352 13.2499 69.25V69.33C12.1355 68.9523 11.1252 68.3187 10.2999 67.48C10.0604 67.269 9.84265 67.0345 9.6499 66.78C9.86841 66.7603 10.0887 66.7806 10.2999 66.84L10.4999 66.86Z" fill="#028E51"/>
<path d="M11.27 68C11.19 67.87 11.04 67.78 10.99 67.63C11.0288 67.6262 11.0662 67.6134 11.0992 67.5926C11.1322 67.5717 11.1599 67.5435 11.18 67.51L12.63 66C12.6976 65.9404 12.7491 65.8647 12.78 65.78H13.29C13.1989 65.9766 13.0574 66.1457 12.88 66.27C12.35 66.78 11.88 67.27 11.33 67.82C11.3 67.87 11.29 67.93 11.27 68Z" fill="#012F22"/>
<path d="M21.95 69.5601C21.95 69.4601 22.04 69.4201 22.09 69.3601C22.66 68.7901 23.2199 68.2001 23.8099 67.6501C24.3999 67.1001 24.89 66.5901 25.43 66.0701C25.5105 65.9974 25.5751 65.9089 25.62 65.8101H25.85C25.85 66.0601 25.57 66.1701 25.42 66.3301C25.09 66.6801 24.75 67.0301 24.42 67.3301C23.91 67.8101 23.42 68.3301 22.93 68.7901L22.3799 69.3501C22.3299 69.4001 22.26 69.4401 22.26 69.5301L21.95 69.5601Z" fill="#00DE78"/>
<path d="M2.59009 54.5801C2.95016 54.5882 3.30855 54.6317 3.66009 54.7101C3.72568 54.727 3.7945 54.727 3.86009 54.7101C3.92099 54.9901 3.92099 55.28 3.86009 55.5601C3.81009 55.7101 3.98009 55.8701 3.86009 56.0201C3.3795 55.5938 2.95298 55.1102 2.59009 54.5801Z" fill="#018A4F"/>
<path d="M5.93994 60.45C6.18994 60.33 6.40994 60.45 6.64994 60.51H6.95994C6.98832 60.5327 7.02359 60.5451 7.05994 60.5451C7.09629 60.5451 7.13156 60.5327 7.15994 60.51C7.20458 60.5912 7.22799 60.6824 7.22799 60.775C7.22799 60.8677 7.20458 60.9588 7.15994 61.04C7.20638 61.3043 7.23312 61.5717 7.23994 61.84C6.75029 61.4328 6.31356 60.9658 5.93994 60.45Z" fill="#019353"/>
<path d="M10.1301 60.4L10.2701 60H11.3201C11.3801 60.1 11.3201 60.16 11.2401 60.21C10.9101 60.51 10.5801 60.81 10.2401 61.1C10.1701 61.16 10.0801 61.27 9.97008 61.16C9.94472 60.8963 10.0006 60.6311 10.1301 60.4Z" fill="#012A1F"/>
<path d="M9.98988 61.18C10.3002 60.9856 10.5827 60.7501 10.8299 60.48C11.0099 60.33 11.2299 60.23 11.3199 59.99H11.7799C11.7799 60.08 11.7099 60.12 11.6499 60.17L10.0999 61.55C9.99988 61.64 9.93988 61.65 9.93988 61.49C9.93988 61.33 9.85988 61.26 9.98988 61.18Z" fill="#012E21"/>
<path d="M13.8399 54.1699C13.4999 54.5099 13.0999 54.7699 12.7399 55.0699L12.4599 55.2899C12.4099 55.2899 12.3799 55.2899 12.3699 55.2899C12.3688 55.2085 12.3884 55.1282 12.4269 55.0565C12.4654 54.9848 12.5215 54.924 12.5899 54.8799L13.0199 54.1899L13.8399 54.1699Z" fill="#01673D"/>
<path d="M12.29 26.28C12.3194 26.2651 12.352 26.2573 12.385 26.2573C12.418 26.2573 12.4506 26.2651 12.48 26.28C13.04 26.38 13.59 26.49 14.15 26.61C14.71 26.73 15.47 26.86 16.15 26.99C15.62 28.19 15.09 29.39 14.45 30.55L14.38 30.66C14.2864 30.6945 14.1836 30.6945 14.09 30.66L10.73 30.06C10.6485 30.0693 10.5666 30.0479 10.5 30C11.09 28.74 11.7 27.51 12.29 26.28Z" fill="#00FA86"/>
<path d="M13.16 32.7001C12.67 33.5501 12.16 34.3901 11.64 35.2101C10.84 35.1001 10.04 34.9401 9.24999 34.8001L7.98999 34.5801C7.89999 34.5801 7.79999 34.5801 7.73999 34.4801L9.29999 32.0001C9.36539 31.9817 9.43459 31.9817 9.49999 32.0001L12.84 32.5801C12.94 32.5701 13.09 32.5601 13.16 32.7001Z" fill="#00F282"/>
<path d="M13.16 32.7C12.68 32.56 12.16 32.52 11.7 32.43C10.96 32.29 10.22 32.18 9.49005 32.05C9.42494 32.041 9.36115 32.0242 9.30005 32L10.5 30L12.78 30.41L14.41 30.69C14.0274 31.3806 13.6102 32.0514 13.16 32.7Z" fill="#00F584"/>
<path d="M7.74 34.48L9.19 34.72L11.48 35.13C11.5112 35.1292 11.5421 35.136 11.57 35.15C11.5979 35.1639 11.6219 35.1845 11.64 35.21C11.23 35.9 10.82 36.59 10.36 37.21C10.2042 37.1548 10.0435 37.1146 9.88 37.09C8.82 36.88 7.77 36.65 6.71 36.48C6.6339 36.4824 6.55944 36.4576 6.5 36.41L7.74 34.48Z" fill="#00EA7E"/>
<path d="M6.5 36.4099C7.5 36.5799 8.5 36.7599 9.5 36.9799C9.73 37.0299 9.97 37.0599 10.2 37.0999C10.43 37.1399 10.42 37.0999 10.44 37.2499C10.1516 37.7393 9.83789 38.2133 9.5 38.6699C9.01 38.6199 8.5 38.5099 8.05 38.4299L5.79 37.9999C5.67 37.9999 5.5 37.9999 5.5 37.8799L6.5 36.4099Z" fill="#00E47C"/>
<path d="M5.49998 37.8799C6.10998 38.0599 6.73998 38.1199 7.35998 38.2399C7.97998 38.3599 8.65998 38.4699 9.30998 38.5799C9.34484 38.5803 9.37916 38.5886 9.41035 38.6041C9.44153 38.6197 9.46876 38.6422 9.48998 38.6699C9.18267 39.1297 8.85225 39.5736 8.49998 39.9999C8.26373 39.9919 8.02903 39.9583 7.79998 39.8999C6.79998 39.7199 5.79998 39.5499 4.79998 39.3599C4.67998 39.3599 4.54998 39.3599 4.47998 39.2099L5.49998 37.8799Z" fill="#00E07A"/>
<path d="M5.72004 44.0701L5.04004 45.1701C4.94004 45.2401 4.84004 45.1701 4.73004 45.1701L1.56004 44.6101C1.46004 44.6101 1.34004 44.6101 1.29004 44.4701C1.4443 44.0606 1.62124 43.66 1.82004 43.2701C1.85405 43.2526 1.89177 43.2434 1.93004 43.2434C1.96831 43.2434 2.00602 43.2526 2.04004 43.2701C3.15004 43.4901 4.27004 43.6601 5.38004 43.8701C5.50004 43.9001 5.69004 43.8601 5.72004 44.0701Z" fill="#00C86E"/>
<path d="M4.50001 39.25C4.96046 39.3721 5.42802 39.4656 5.90001 39.53L8.41001 40C8.43905 39.9893 8.47097 39.9893 8.50001 40C8.30404 40.3184 8.09037 40.6255 7.86001 40.92C7.77589 40.9497 7.68413 40.9497 7.60001 40.92L4.00001 40.28C3.95416 40.282 3.90849 40.273 3.86677 40.2539C3.82504 40.2348 3.78846 40.206 3.76001 40.17L4.50001 39.25Z" fill="#00DB77"/>
<path d="M5.72007 44.0699C5.72007 43.9899 5.62007 43.9899 5.55007 43.9799L2.44007 43.4299L1.82007 43.2899C1.96997 42.9706 2.1438 42.663 2.34007 42.3699C2.36951 42.355 2.40206 42.3472 2.43507 42.3472C2.46808 42.3472 2.50063 42.355 2.53007 42.3699L6.03007 42.9999C6.14007 42.9999 6.30007 42.9999 6.33007 43.1799L5.72007 44.0699Z" fill="#00CE70"/>
<path d="M3.78996 40.22L6.05996 40.63L7.88996 41C7.70812 41.2981 7.50421 41.5822 7.27996 41.85C6.36996 41.64 5.49996 41.52 4.49996 41.29C4.16996 41.21 3.82996 41.18 3.49996 41.11C3.39996 41.11 3.28996 41.11 3.20996 40.99C3.38233 40.7182 3.57629 40.4607 3.78996 40.22Z" fill="#00D875"/>
<path d="M1.28996 44.49C1.72152 44.6006 2.15885 44.6874 2.59996 44.75C3.40996 44.9 4.22996 45.03 5.03996 45.17L4.49996 46.12L1.16996 45.53C1.09259 45.5296 1.01799 45.5012 0.959961 45.45C1.03826 45.12 1.14879 44.7984 1.28996 44.49Z" fill="#00C36B"/>
<path d="M3.23999 41C3.75999 41.11 4.23999 41.17 4.79999 41.31C5.35999 41.45 5.71999 41.48 6.17999 41.56L7.17999 41.74C7.17999 41.74 7.25999 41.74 7.26999 41.82L6.76999 42.53C6.27999 42.53 5.76999 42.37 5.32999 42.29L3.09999 41.89C2.96412 41.8839 2.83556 41.8268 2.73999 41.73C2.88271 41.4711 3.05015 41.2266 3.23999 41Z" fill="#00D473"/>
<path d="M2.74009 41.73C3.46009 41.92 4.21009 42.01 4.95009 42.14L6.60009 42.43C6.63495 42.4304 6.66927 42.4387 6.70045 42.4543C6.73164 42.4698 6.75887 42.4923 6.78009 42.52C6.64614 42.7473 6.49574 42.9646 6.33009 43.17C6.1024 43.0499 5.84734 42.9913 5.59009 43C4.69009 42.82 3.78009 42.67 2.87009 42.5L2.34009 42.39C2.44299 42.1529 2.57755 41.9309 2.74009 41.73Z" fill="#00D172"/>
<path d="M0.550049 47.6499V47.4599L0.650049 46.7799C0.691679 46.758 0.738011 46.7466 0.785049 46.7466C0.832087 46.7466 0.878419 46.758 0.920049 46.7799L3.73005 47.2799C3.83005 47.2799 3.93005 47.2799 3.99005 47.3999L3.68005 48.3299C3.62005 48.1099 3.43005 48.1899 3.30005 48.1599L0.620049 47.6499H0.550049Z" fill="#00B765"/>
<path d="M0.960068 45.45L2.43007 45.68C3.05007 45.78 3.67007 45.8899 4.28007 46.0099C4.37007 46.0099 4.49007 46.0099 4.53007 46.1199C4.40007 46.3399 4.36007 46.6 4.21007 46.82L1.21007 46.22C1.07059 46.2133 0.935658 46.1683 0.820068 46.09C0.841161 45.8718 0.888158 45.657 0.960068 45.45Z" fill="#00BE69"/>
<path d="M0.779893 46.0901C1.21989 46.1701 1.66989 46.2301 2.09989 46.3301C2.69989 46.4701 3.31989 46.5601 3.92989 46.6901C4.01989 46.6901 4.16989 46.6901 4.20989 46.8201L3.97989 47.3701L0.639893 46.7801C0.665275 46.5463 0.71214 46.3153 0.779893 46.0901Z" fill="#00BB67"/>
<path d="M17.7899 28.2L21.2499 28.83L21.5899 28.8899C20.7999 30.5699 20.0599 32.2599 19.1599 33.8899C19.1599 33.9699 19.0699 34.05 19.0199 34.13C18.7072 34.1036 18.3965 34.0569 18.0899 33.99L15.4399 33.5099C15.332 33.506 15.229 33.4635 15.1499 33.3899C15.7199 32.3899 16.2799 31.3 16.7999 30.2299L17.7899 28.2Z" fill="#00FB86"/>
<path d="M15.15 33.3799L18.41 33.9699C18.6211 33.9806 18.8281 34.0315 19.02 34.1199C18.61 34.9199 18.15 35.6899 17.7 36.4599C17.6 36.5299 17.51 36.4599 17.41 36.4599C16.28 36.2699 15.16 35.9799 14.02 35.8099C13.9386 35.8057 13.8611 35.7739 13.8 35.7199L15.15 33.3799Z" fill="#00F684"/>
<path d="M10.1299 41.27C10.5499 40.62 10.9899 39.97 11.4599 39.35C11.505 39.3279 11.5546 39.3164 11.6049 39.3164C11.6551 39.3164 11.7047 39.3279 11.7499 39.35C12.8899 39.56 14.0399 39.75 15.1799 39.97C15.2799 39.97 15.3999 39.97 15.4499 40.1C15.0699 40.71 14.6799 41.31 14.2899 41.91L14.1299 42.13C13.8171 42.1306 13.5063 42.0799 13.2099 41.98C12.4499 41.79 11.6799 41.7 10.9199 41.54L10.3799 41.44C10.2799 41.4 10.1799 41.38 10.1299 41.27Z" fill="#00EA7F"/>
<path d="M15.5 40.0801C15.04 39.9501 14.57 39.9001 14.1 39.8101L11.94 39.4201L11.5 39.3501L12.68 37.5101C12.7114 37.4957 12.7455 37.4883 12.78 37.4883C12.8145 37.4883 12.8486 37.4957 12.88 37.5101C14.04 37.7301 15.21 37.9201 16.37 38.1501C16.48 38.1501 16.63 38.1501 16.63 38.3301C16.22 38.9001 15.86 39.5101 15.5 40.0801Z" fill="#00F081"/>
<path d="M16.5899 38.3C16.4299 38.11 16.1899 38.16 15.9899 38.12C15.1599 37.95 14.3399 37.82 13.5099 37.67L12.6399 37.51C12.9999 36.9 13.3999 36.31 13.7999 35.73C14.4899 35.83 15.1799 35.95 15.8699 36.1L17.6999 36.46C17.3599 37.09 16.9799 37.7 16.5899 38.3Z" fill="#00F383"/>
<path d="M10.1299 41.27C10.5564 41.4039 10.9953 41.4944 11.4399 41.54C12.2899 41.7 13.1399 41.88 13.9799 42.05L14.1299 42.11C13.7499 42.68 13.3999 43.29 12.9699 43.83C12.0999 43.69 11.2399 43.52 10.3699 43.37L9.21993 43.17C9.10993 43.17 8.98993 43.17 8.92993 43.01L10.1299 41.27Z" fill="#00E47C"/>
<path d="M8.93 43C9.37556 43.1278 9.83021 43.2214 10.29 43.28C11.08 43.43 11.88 43.56 12.68 43.7C12.78 43.7 12.9 43.7 12.97 43.82C12.59 44.34 12.24 44.89 11.83 45.39C11.7889 45.4076 11.7447 45.4167 11.7 45.4167C11.6553 45.4167 11.6111 45.4076 11.57 45.39L8.1 44.8C7.97 44.8 7.82 44.8 7.75 44.62C8.12 44.07 8.5 43.54 8.93 43Z" fill="#00E07A"/>
<path d="M7.75 44.6201C8.06931 44.7468 8.407 44.8211 8.75 44.8401C9.57 45.0101 10.39 45.1401 11.22 45.2901L11.86 45.4001L10.77 46.9201C10.6756 46.95 10.5744 46.95 10.48 46.9201C9.32 46.7201 8.17 46.5201 7.02 46.3001C6.92011 46.2952 6.82488 46.2564 6.75 46.1901C7.047 45.6445 7.38112 45.1199 7.75 44.6201Z" fill="#00DA76"/>
<path d="M6.72002 46.1799L9.94002 46.7699C10.2108 46.7948 10.4786 46.845 10.74 46.9199L9.95002 48.0699C9.61298 48.0553 9.27811 48.0084 8.95002 47.9299L6.28002 47.4399C6.23107 47.4435 6.18197 47.4354 6.13677 47.4162C6.09157 47.3971 6.05156 47.3675 6.02002 47.3299C6.22762 46.9315 6.46147 46.5473 6.72002 46.1799Z" fill="#00D474"/>
<path d="M4.66992 50.22C4.80979 49.8093 4.97683 49.4084 5.16992 49.02C5.25317 48.9855 5.34668 48.9855 5.42992 49.02C6.48992 49.21 7.54992 49.39 8.59992 49.6C8.71992 49.6 8.86992 49.6 8.88992 49.8L8.24992 50.96C7.66992 50.9 7.09992 50.76 6.51992 50.67C5.93992 50.58 5.51992 50.48 4.99992 50.39C4.87992 50.33 4.74992 50.33 4.66992 50.22Z" fill="#00CA6E"/>
<path d="M12.59 54.8499L12.37 55.2599L12.01 55.8599C11.9729 55.8792 11.9318 55.8893 11.89 55.8893C11.8482 55.8893 11.8071 55.8792 11.77 55.8599L8.49999 55.3099C8.38999 55.3099 8.26999 55.3099 8.23999 55.1199C8.30128 54.8683 8.38841 54.6237 8.49999 54.3899C8.52824 54.3039 8.58024 54.2276 8.64999 54.1699L10.35 54.4499L12.59 54.8499Z" fill="#00C86E"/>
<path d="M8.88992 49.7601C8.67992 49.5501 8.39992 49.5801 8.13992 49.5401C7.32992 49.3701 6.50992 49.2401 5.68992 49.1001L5.16992 49.0001C5.30992 48.6901 5.44992 48.3801 5.61992 48.0801C5.72978 48.0404 5.85007 48.0404 5.95992 48.0801C7.03992 48.2701 8.11992 48.4901 9.19992 48.6801C9.28992 48.6801 9.41992 48.6801 9.43992 48.8301L8.88992 49.7601Z" fill="#00CE70"/>
<path d="M4.67009 50.22L6.92009 50.63L8.14009 50.86C8.19009 50.86 8.23009 50.86 8.25009 50.92L7.83009 51.77C7.79853 51.7894 7.76217 51.7997 7.72509 51.7997C7.688 51.7997 7.65165 51.7894 7.62009 51.77C6.62009 51.59 5.55009 51.42 4.52009 51.23C4.45009 51.23 4.38009 51.23 4.34009 51.14C4.42026 50.8234 4.53077 50.5153 4.67009 50.22Z" fill="#00C46C"/>
<path d="M9.43992 48.8501C9.11727 48.7327 8.78142 48.6555 8.43992 48.6201C7.64992 48.4501 6.84992 48.3201 6.04992 48.1801L5.66992 48.1001C5.79354 47.8329 5.93729 47.5755 6.09992 47.3301L8.36992 47.7401L9.84992 48.0001C9.87011 48.0016 9.88967 48.0078 9.90703 48.0182C9.92439 48.0287 9.93908 48.043 9.94992 48.0601C9.75992 48.3201 9.64992 48.6101 9.43992 48.8501Z" fill="#00D072"/>
<path d="M4.34012 51.1699L5.83012 51.4199L7.83012 51.7699L7.50012 52.6499C7.44012 52.6999 7.37012 52.6499 7.31012 52.6499C6.31012 52.4599 5.36012 52.3199 4.39012 52.1199C4.30018 52.1248 4.21005 52.1248 4.12012 52.1199C4.16263 51.7969 4.23631 51.4788 4.34012 51.1699Z" fill="#00C16A"/>
<path d="M4.0799 52.0901C4.0799 52.0901 4.1499 52.0101 4.2299 52.0301L7.2899 52.6001H7.4599L7.1499 53.4701C7.03931 53.5053 6.9205 53.5053 6.8099 53.4701C5.9499 53.2901 5.0799 53.1601 4.2199 53.0001H3.8999C3.9353 52.6924 3.99549 52.3881 4.0799 52.0901Z" fill="#00BC68"/>
<path d="M3.90007 52.9999C3.95007 52.9999 3.98007 52.9099 4.07007 52.9299L7.07007 53.4699H7.16007L6.98007 54.0999C6.99029 54.137 6.9901 54.1763 6.97952 54.2133C6.96893 54.2504 6.94837 54.2838 6.92007 54.3099C6.82106 54.3298 6.71908 54.3298 6.62007 54.3099L4.25007 53.8799C4.17849 53.8569 4.10266 53.8504 4.02822 53.8608C3.95377 53.8712 3.88262 53.8982 3.82007 53.9399C3.82294 53.625 3.84968 53.3108 3.90007 52.9999Z" fill="#00B865"/>
<path d="M6.91007 54.3399C6.91007 54.2799 6.91007 54.1999 6.97007 54.1499H8.66007C8.64942 54.2297 8.61843 54.3055 8.57007 54.3699C8.06007 54.7699 7.57007 55.1599 7.04007 55.5699C6.96651 55.6323 6.88598 55.686 6.80007 55.7299C6.71007 55.7299 6.63007 55.7899 6.60007 55.6699C6.5931 55.4642 6.61669 55.2587 6.67007 55.0599C6.68747 54.8034 6.77008 54.5556 6.91007 54.3399Z" fill="#012A1F"/>
<path d="M6.91004 54.3401C6.83478 54.5828 6.77467 54.8299 6.73004 55.0801C6.64004 55.1601 6.53004 55.1301 6.42004 55.0801L4.00004 54.6701C3.91645 54.6668 3.83748 54.6309 3.78004 54.5701C3.74591 54.5071 3.72803 54.4367 3.72803 54.3651C3.72803 54.2935 3.74591 54.223 3.78004 54.1601V53.9701C3.78004 53.8101 3.90004 53.7901 4.07004 53.8201C4.97004 53.9901 5.87004 54.1401 6.77004 54.3001L6.91004 54.3401Z" fill="#00B464"/>
<path d="M3.79 54.1599V54.5699C3.80626 54.5896 3.81515 54.6144 3.81515 54.6399C3.81515 54.6655 3.80626 54.6902 3.79 54.7099V54.9099C3.71 54.9099 3.71 54.7699 3.66 54.7099L3.5 54.1599H3.79Z" fill="#02241C"/>
<path d="M9.99011 61.18C9.92011 61.27 9.99011 61.3901 9.94011 61.4901L8.71011 61.2901L7.19011 61.03C7.21978 60.8479 7.21978 60.6622 7.19011 60.48C7.06011 60.32 7.13011 60.1301 7.12011 59.9501C7.11803 59.9212 7.12337 59.8922 7.13562 59.866C7.14787 59.8397 7.16663 59.817 7.19011 59.8C7.52327 59.85 7.85369 59.9167 8.18011 60L10.0201 60.3301C10.0563 60.3219 10.0939 60.3219 10.1301 60.3301C10.1201 60.6601 9.99011 60.91 9.99011 61.18Z" fill="#00AE61"/>
<path d="M3.81006 54.7101V54.5701L6.50006 55.0701H6.73006C6.68539 55.2777 6.65532 55.4882 6.64006 55.7001C6.64006 55.8301 6.72006 55.9801 6.55006 56.0801L4.86006 55.7801C4.51927 55.752 4.18333 55.6815 3.86006 55.5701C3.82006 55.3923 3.82006 55.2078 3.86006 55.0301C3.84006 54.9301 3.88006 54.8101 3.81006 54.7101Z" fill="#00B062"/>
<path d="M6.54992 56.0899C6.62992 55.9699 6.54992 55.8299 6.63992 55.7099C6.72992 55.8099 6.77992 55.7099 6.82992 55.7099L8.16992 54.7099C8.28992 54.6199 8.37992 54.4599 8.56992 54.4699C8.51992 54.7099 8.34992 54.9199 8.28992 55.1599C8.22992 55.3999 8.28992 55.4799 8.11992 55.5899C7.84784 55.7411 7.59586 55.9259 7.36992 56.1399L6.75992 56.6199C6.75992 56.6699 6.62992 56.7299 6.55992 56.6699C6.48992 56.6099 6.55992 56.5499 6.55992 56.4799L6.54992 56.0899Z" fill="#013424"/>
<path d="M6.54991 56.4C6.54991 56.57 6.54991 56.62 6.72991 56.5C7.08991 56.21 7.44991 55.93 7.79991 55.63C7.88064 55.5499 7.9867 55.5004 8.09991 55.49C8.14991 55.73 7.96991 55.92 7.91991 56.13C7.90254 56.2107 7.86062 56.284 7.79991 56.34C7.43991 56.57 7.12991 56.87 6.79991 57.12L6.72991 57.18C6.72991 57.18 6.61991 57.28 6.54991 57.24C6.47991 57.2 6.54991 57.12 6.54991 57.04C6.52021 56.8277 6.52021 56.6123 6.54991 56.4Z" fill="#013B28"/>
<path d="M6.49989 57C6.49989 57.06 6.49989 57.14 6.49989 57.17C6.49989 57.2 6.5799 57.12 6.6199 57.09L7.54989 56.36C7.60921 56.3222 7.67305 56.2919 7.73989 56.27C7.74955 56.2867 7.75463 56.3057 7.75463 56.325C7.75463 56.3443 7.74955 56.3633 7.73989 56.38C7.63989 56.63 7.6499 56.93 7.4499 57.15C7.3099 57.33 7.0899 57.42 6.9299 57.59C6.90079 57.6153 6.8635 57.6293 6.8249 57.6293C6.78631 57.6293 6.74902 57.6153 6.7199 57.59L6.49989 57.62C6.39989 57.56 6.42989 57.46 6.41989 57.37C6.40989 57.28 6.42989 57.14 6.49989 57Z" fill="#01422B"/>
<path d="M7.5 57.1899L7.77 56.3099L7.86 56.1299C8.92 56.3599 10 56.5099 11.06 56.7099C11.21 56.7099 11.37 56.7099 11.48 56.8599V56.9999C11.3496 57.204 11.2423 57.422 11.16 57.6499L11.02 57.8799C10.37 57.7599 9.71 57.6499 9.02 57.5099C8.59 57.4199 8.16 57.3299 7.73 57.2599C7.6558 57.2291 7.57877 57.2056 7.5 57.1899Z" fill="#00BF69"/>
<path d="M6.77002 57.69C6.88002 57.69 6.95002 57.69 7.02002 57.56C7.15818 57.4212 7.32095 57.3093 7.50002 57.23C7.44476 57.4266 7.40464 57.6272 7.38002 57.83H7.25002C7.08296 57.8123 6.9204 57.7649 6.77002 57.69Z" fill="#034D31"/>
<path d="M9.81008 63.0001V63.3701C9.74983 63.1883 9.74983 62.9919 9.81008 62.8101V63.0001Z" fill="#014A2F"/>
<path d="M11.4999 56.8601L9.49991 56.5001L8.09991 56.2501C8.02991 56.2501 7.91991 56.2501 7.90991 56.1301L8.12991 55.4901L8.31991 55.0801C8.31991 55.2601 8.46991 55.2301 8.55991 55.2501L10.1199 55.5301L12.0399 55.8601L11.8899 56.2201L11.4999 56.8601Z" fill="#00C36B"/>
<path d="M6.79004 60H7.10004V60.55V60.75C7.01004 60.75 7.04004 60.6 6.97004 60.55L6.79004 60Z" fill="#02241D"/>
<path fill-rule="evenodd" clip-rule="evenodd" d="M73.4099 56.3901C69.5499 56.3901 66.7299 56.5501 63.5399 53.8301C62.4125 52.8821 61.5061 51.6989 60.8842 50.3636C60.2623 49.0283 59.94 47.5731 59.9399 46.1001V13.8201H65.5799V46.4301C65.5799 50.9501 69.5799 51.8201 73.4099 51.5101V56.3901Z" fill="#F9F9FD"/>
<path fill-rule="evenodd" clip-rule="evenodd" d="M76.99 27H82.38V45.17C82.38 49.23 85.56 51.51 89.38 51.51C93.2 51.51 96.24 49.11 96.24 45.17V27H101.63V43.64C101.63 51.91 98.04 56.4 89.24 56.4C81.24 56.4 77 52.23 77 44.4L76.99 27Z" fill="#F9F9FD"/>
<path fill-rule="evenodd" clip-rule="evenodd" d="M107.26 56H112.59V36.7C112.59 35.2413 113.169 33.8424 114.201 32.8109C115.232 31.7795 116.631 31.2 118.09 31.2C119.549 31.2 120.948 31.7795 121.979 32.8109C123.011 33.8424 123.59 35.2413 123.59 36.7V56H129.04V36.7C129.04 35.2413 129.619 33.8424 130.651 32.8109C131.682 31.7795 133.081 31.2 134.54 31.2C135.999 31.2 137.398 31.7795 138.429 32.8109C139.461 33.8424 140.04 35.2413 140.04 36.7V56H145.24V37.32C145.232 34.4555 144.091 31.7105 142.065 29.6849C140.04 27.6594 137.295 26.5179 134.43 26.51C132.885 26.5115 131.359 26.8454 129.954 27.489C128.549 28.1326 127.3 29.0708 126.29 30.24C125.277 29.0716 124.026 28.134 122.62 27.4905C121.214 26.8471 119.686 26.5127 118.14 26.51C115.275 26.5179 112.53 27.6594 110.505 29.6849C108.479 31.7105 107.338 34.4555 107.33 37.32L107.26 56Z" fill="#F9F9FD"/>
<path d="M156.46 26.95H150.82V55.9599H156.46V26.95Z" fill="#F9F9FD"/>
<path fill-rule="evenodd" clip-rule="evenodd" d="M153.64 17.1199C154.283 17.1199 154.912 17.3108 155.447 17.6683C155.981 18.0259 156.398 18.534 156.643 19.1285C156.889 19.7229 156.953 20.3769 156.827 21.0076C156.7 21.6383 156.39 22.2174 155.934 22.6715C155.479 23.1256 154.899 23.4344 154.268 23.5587C153.637 23.6829 152.983 23.6171 152.389 23.3696C151.796 23.1221 151.289 22.704 150.933 22.1682C150.577 21.6324 150.388 21.0031 150.39 20.3599C150.39 19.9336 150.474 19.5114 150.637 19.1177C150.801 18.7239 151.041 18.3663 151.342 18.0653C151.644 17.7643 152.003 17.5259 152.397 17.3636C152.791 17.2014 153.214 17.1186 153.64 17.1199Z" fill="#00FF89"/>
</g>
</g>
</g>
<defs>
<clipPath id="clip0_2_166">
<rect width="157" height="70" fill="white" transform="translate(0.5)"/>
</clipPath>
<clipPath id="clip1_2_166">
<rect width="157" height="70" fill="white" transform="translate(0.5)"/>
</clipPath>
</defs>
</svg>
